<?xml version="1.0" encoding="UTF-8"?>
<svg id="SVGRoot" width="297mm" height="210mm" version="1.1" viewBox="0 0 297 210" xmlns="http://www.w3.org/2000/svg" xmlns:cc="http://creativecommons.org/ns#" xmlns:dc="http://purl.org/dc/elements/1.1/" xmlns:rdf="http://www.w3.org/1999/02/22-rdf-syntax-ns#">
<metadata>
<rdf:RDF>
<cc:Work rdf:about="">
<dc:format>image/svg+xml</dc:format>
<dc:type rdf:resource="http://purl.org/dc/dcmitype/StillImage"/>
<dc:title/>
</cc:Work>
</rdf:RDF>
</metadata>
<g transform="matrix(.203 0 0 .203 60.71 51.888)">
<g fill="none" stroke="#1f293d">
<g stroke-opacity=".6" stroke-width="3.6">
<path d="m30.251-53.696 83.774-106.7"/>
<!-- drawing style -->
<path d="m104.7-183.48-45.365-6.2668"/>
</g>
<!-- drawing style -->
<g stroke-opacity=".60784" stroke-width="3.644">
<path d="m155-114.8-16.427-41.978"/>
</g>
<!-- drawing style -->
<g stroke-opacity=".54118" stroke-width="3.252">
<path d="m184.72-105.66 82.453-56.581"/>
</g>
<!-- drawing style -->
<g stroke-opacity=".61569" stroke-width="3.684">
<path d="m38.142-43.016 102.64-39.517"/>
</g>
<!-- drawing style -->
<g stroke-opacity=".60392" stroke-width="3.628">
<path d="m144.44-106.95-90.207-70.783"/>
</g>
<!-- drawing style -->
<g stroke-opacity=".60784" stroke-width="3.644">
<path d="m17.892-58.843 13.596-109.51"/>
</g>
<!-- drawing style -->
</g>
<g fill="#f66">
<path d="m-142.97 131.38c0 13.807-11.193 25-25 25s-25-11.193-25-25 11.193-25 25-25 25 11.193 25 25z"/>
</g>
<!-- drawing style -->
</g>
<g transform="matrix(.203 0 0 .203 22.618 79.343)">
<text fill="#000000" font-family="Helvetica" font-size="12px">PRSS8</text>
</g>
<g transform="matrix(.203 0 0 .203 60.71 51.888)">
<g fill="#66f">
<path d="m-162.01 51.64c0 13.807-11.193 25-25 25-13.807 0-25-11.193-25-25 0-13.807 11.193-25 25-25 13.807 0 25 11.193 25 25z"/>
</g>
<!-- drawing style -->
</g>
<g transform="matrix(.203 0 0 .203 18.551 63.156)">
<text fill="#000000" font-family="Helvetica" font-size="12px">CREG1</text>
</g>
<g transform="matrix(.203 0 0 .203 60.71 51.888)">
<g fill="#f66">
<path d="m154.46-180.06c0 13.807-11.193 25-25 25s-25-11.193-25-25c0-13.807 11.193-25 25-25s25 11.193 25 25z"/>
</g>
<!-- drawing style -->
</g>
<g transform="matrix(.203 0 0 .203 82.726 16.123)">
<text fill="#000000" font-family="Helvetica" font-size="12px">GOLM1</text>
</g>
<g transform="matrix(.203 0 0 .203 60.71 51.888)">
<g fill="#f66">
<path d="m312.79-176.39c0 13.807-11.193 25-25 25-13.807 0-25-11.193-25-25s11.193-25 25-25c13.807 0 25 11.193 25 25z"/>
</g>
<!-- drawing style -->
</g>
<g transform="matrix(.203 0 0 .203 115.88 16.868)">
<text fill="#000000" font-family="Helvetica" font-size="12px">CALR</text>
</g>
<g transform="matrix(.203 0 0 .203 60.71 51.888)">
<g fill="#f66">
<path d="m-127.55-22.746c0 13.807-11.193 25-25 25s-25-11.193-25-25c0-13.807 11.193-25 25-25s25 11.193 25 25z"/>
</g>
<!-- drawing style -->
</g>
<g transform="matrix(.203 0 0 .203 25.004 48.056)">
<text fill="#000000" font-family="Helvetica" font-size="12px">HAPLN3</text>
</g>
<g transform="matrix(.203 0 0 .203 60.71 51.888)">
<g fill="#f66">
<path d="m-54.418-59.784c0 13.807-11.193 25-25 25s-25-11.193-25-25c0-13.807 11.193-25 25-25s25 11.193 25 25z"/>
</g>
<!-- drawing style -->
</g>
<g transform="matrix(.203 0 0 .203 42.084 40.537)">
<text fill="#000000" font-family="Helvetica" font-size="12px">HPX</text>
</g>
<g transform="matrix(.203 0 0 .203 60.71 51.888)">
<g fill="#f66">
<path d="m189.11-91.515c0 13.807-11.193 25-25 25s-25-11.193-25-25c0-13.807 11.193-25 25-25s25 11.193 25 25z"/>
</g>
<!-- drawing style -->
</g>
<g transform="matrix(.203 0 0 .203 91.587 34.096)">
<text fill="#000000" font-family="Helvetica" font-size="12px">APP</text>
</g>
<g transform="matrix(.203 0 0 .203 60.71 51.888)">
<g fill="#f66">
<path d="m86.744 51.64c0 13.807-11.193 25-25 25-13.807 0-25-11.193-25-25 0-13.807 11.193-25 25-25 13.807 0 25 11.193 25 25z"/>
</g>
<!-- drawing style -->
</g>
<g transform="matrix(.203 0 0 .203 69.318 63.156)">
<text fill="#000000" font-family="Helvetica" font-size="12px">DEFB1</text>
</g>
<g transform="matrix(.203 0 0 .203 60.71 51.888)">
<g fill="#f66">
<path d="m39.812-34.033c0 13.807-11.193 25-25 25-13.807 0-25-11.193-25-25 0-13.807 11.193-25 25-25 13.807 0 25 11.193 25 25z"/>
</g>
<!-- drawing style -->
</g>
<g transform="matrix(.203 0 0 .203 61.214 45.765)">
<text fill="#000000" font-family="Helvetica" font-size="12px">TNC</text>
</g>
<g transform="matrix(.203 0 0 .203 60.71 51.888)">
<g fill="#f66">
<path d="m67.704 131.38c0 13.807-11.193 25-25 25s-25-11.193-25-25 11.193-25 25-25 25 11.193 25 25z"/>
</g>
<!-- drawing style -->
</g>
<g transform="matrix(.203 0 0 .203 65.452 79.343)">
<text fill="#000000" font-family="Helvetica" font-size="12px">CRYL1</text>
</g>
<g transform="matrix(.203 0 0 .203 60.71 51.888)">
<g fill="#f66">
<path d="m3.3548 182.17c0 13.807-11.193 25-25 25-13.807 0-25-11.193-25-25 0-13.807 11.193-25 25-25 13.807 0 25 11.193 25 25z"/>
</g>
<!-- drawing style -->
</g>
<g transform="matrix(.203 0 0 .203 53 89.653)">
<text fill="#000000" font-family="Helvetica" font-size="12px">GGT1</text>
</g>
<g transform="matrix(.203 0 0 .203 60.71 51.888)">
<g fill="#f66">
<path d="m59.569-193.16c0 13.807-11.193 25-25 25s-25-11.193-25-25 11.193-25 25-25 25 11.193 25 25z"/>
</g>
<!-- drawing style -->
</g>
<g transform="matrix(.203 0 0 .203 63.599 13.462)">
<text fill="#000000" font-family="Helvetica" font-size="12px">MATN3</text>
</g>
<g transform="matrix(.203 0 0 .203 60.71 51.888)">
<g fill="#f66">
<path d="m-78.626 182.17c0 13.807-11.193 25-25 25s-25-11.193-25-25c0-13.807 11.193-25 25-25s25 11.193 25 25z"/>
</g>
<!-- drawing style -->
</g>
<g transform="matrix(.203 0 0 .203 37.713 89.653)">
<text fill="#000000" font-family="Helvetica" font-size="12px">CFI</text>
</g>
<rect x="2.6458" y="5.2917" width="145.52" height="108.48" opacity="0" stroke-width="1.3229"/>
<ellipse transform="matrix(.99907 -.043172 .038116 .99927 0 0)" cx="87.891" cy="69.112" rx="3.7012" ry="3.6551" fill="#66f"/>
<ellipse cx="90.483" cy="74.439" rx="3.4646" ry="3.4531" fill="#f66"/>
<rect x="2.6458" y="2.6458" width="142.88" height="99.219" fill="none" stroke="#999" stroke-dasharray="1.50000004,0.50000001" stroke-miterlimit="10" stroke-width=".5"/>
<text x="82.493477" y="120.76994" fill="#000000" font-family="Arial" font-size="3.5278px" stroke-width=".26458" style="line-height:1.25" xml:space="preserve"><tspan x="82.493477" y="120.76994" font-family="'Times New Roman'" font-size="2.8222px" stroke-width=".26458" style="font-variant-caps:normal;font-variant-east-asian:normal;font-variant-ligatures:normal;font-variant-numeric:normal">GO Component: azurophil granule lumen</tspan></text>
<text x="95.116364" y="75.553329" fill="#000000" font-family="Arial" font-size="3.5278px" stroke-width=".26458" style="line-height:1.25" xml:space="preserve"><tspan x="95.116364" y="75.553329" font-family="'Times New Roman'" font-size="2.8222px" stroke-width=".26458" style="font-variant-caps:normal;font-variant-east-asian:normal;font-variant-ligatures:normal;font-variant-numeric:normal">down-regulated proteins from T1 to T3</tspan></text>
<g transform="matrix(.18716 0 0 .18716 42.991 155.04)">
<g fill="none" stroke="#1f293d">
<g stroke-opacity=".6" stroke-width="3.6">
<path d="m-128.7-83.932 202.49 40.278"/>
<!-- drawing style -->
<path d="m-148.34-64.29 9.3921 47.217"/>
<!-- drawing style -->
<path d="m-139.33-109.6 26.746-40.029"/>
<!-- drawing style -->
<path d="m-139.33-68.022 72.97 109.21"/>
<!-- drawing style -->
<path d="m-132.43-74.92 155.43 103.86"/>
<!-- drawing style -->
<path d="m-132.43-102.7 109.21-72.97"/>
<!-- drawing style -->
<path d="m-128.7-93.686 183.34-36.469"/>
<!-- drawing style -->
<path d="m-109.55 2.5699 183.34-36.469"/>
<!-- drawing style -->
<path d="m-77.905-156.52 155.43 103.86"/>
<!-- drawing style -->
<path d="m84.424-17.99-26.746 40.029"/>
<!-- drawing style -->
<path d="m-31.681 48.083 109.21-72.97"/>
<!-- drawing style -->
<path d="m84.044-110.51 9.3921 47.217"/>
</g>
<!-- drawing style -->
<g stroke-opacity=".6" stroke-width="3.608">
<path d="m11.454-168.77 72.97 109.21"/>
</g>
<!-- drawing style -->
<g stroke-opacity=".46274" stroke-width="2.78">
<path d="m48.132 189.96-3.6056-122.15"/>
</g>
<!-- drawing style -->
<g stroke-opacity=".6" stroke-width="3.6">
<path d="m-129.19-17.072 25.624-128.82"/>
</g>
<!-- drawing style -->
<g stroke-opacity=".60392" stroke-width="3.62">
<path d="m54.647-139.91-128.82-25.624"/>
</g>
<g stroke-opacity=".6">
<!-- drawing style -->
<g stroke-width="3.6">
<path d="m-26.955-184.68-47.217 9.3921"/>
</g>
<!-- drawing style -->
<g stroke-width="3.608">
<path d="m-84.803-149.62 114.7 171.66"/>
</g>
<!-- drawing style -->
<g stroke-width="3.6">
<path d="m-57.345 37.452-36.469-183.34"/>
</g>
<!-- drawing style -->
</g>
<g stroke-opacity=".45098" stroke-width="2.716">
<path d="m178.06 103.14-111.47-50.074"/>
</g>
<g stroke-opacity=".6">
<!-- drawing style -->
<g stroke-width="3.604">
<path d="m74.289-110.51-25.624 128.82"/>
</g>
<!-- drawing style -->
<g stroke-width="3.6">
<path d="m65.277-114.25-103.86 155.43"/>
<!-- drawing style -->
<path d="m-113.28-6.4421 171.66-114.7"/>
<!-- drawing style -->
<path d="m58.38-148.92-40.029-26.746"/>
<!-- drawing style -->
<path d="m-27.948 57.095 47.217-9.3921"/>
</g>
<!-- drawing style -->
<g stroke-width="3.604">
<path d="m-113.28 21.336 40.029 26.746"/>
</g>
<!-- drawing style -->
<g stroke-width="3.6">
<path d="m-7.3128-165.04-40.278 202.49"/>
<!-- drawing style -->
<path d="m2.4417-165.04 36.469 183.34"/>
</g>
<!-- drawing style -->
</g>
<g stroke-opacity=".32941" stroke-width="1.98">
<path d="m119.22 155.72-61.542-92.105"/>
</g>
<!-- drawing style -->
<g stroke-opacity=".6" stroke-width="3.6">
<path d="m-109.55 12.324 128.82 25.624"/>
<!-- drawing style -->
<path d="m-120.18-13.34 103.86-155.43"/>
</g>
<!-- drawing style -->
</g>
<g fill="#fff">
<path d="m-128.22-88.809c0 13.807-11.193 25-25 25-13.807 0-25-11.193-25-25 0-13.807 11.193-25 25-25 13.807 0 25 11.193 25 25z"/>
</g>
<!-- drawing style -->
</g>
<g transform="matrix(.18716 0 0 .18716 14.314 138.42)">
<g fill="none" stroke="#000" stroke-width=".1">
<path d="m7.7254-23.776c10.301 3.3469 17.275 12.946 17.275 23.776h10c0-15.163-9.7636-28.601-24.184-33.287z"/>
</g>
<!-- drawing style -->
<g fill="#be989c">
<path d="m7.7254-23.776c10.301 3.3469 17.275 12.946 17.275 23.776h10c0-15.163-9.7636-28.601-24.184-33.287z"/>
</g>
<!-- drawing style -->
<g fill="none" stroke="#000" stroke-width=".1">
<path d="m-20.225-14.695c6.3661-8.7622 17.65-12.429 27.951-9.0818l3.0902-9.5106c-14.421-4.6856-30.219 0.44744-39.131 12.714z"/>
</g>
<!-- drawing style -->
<g fill="#66c2a5">
<path d="m-20.225-14.695c6.3661-8.7622 17.65-12.429 27.951-9.0818l3.0902-9.5106c-14.421-4.6856-30.219 0.44744-39.131 12.714z"/>
</g>
<!-- drawing style -->
<g fill="none" stroke="#000" stroke-width=".1">
<path d="m-20.225 14.695c-6.3661-8.7622-6.3661-20.627 0-29.389l-8.0902-5.8779c-8.9125 12.267-8.9125 28.878 0 41.145z"/>
</g>
<!-- drawing style -->
<g fill="#db9971">
<path d="m-20.225 14.695c-6.3661-8.7622-6.3661-20.627 0-29.389l-8.0902-5.8779c-8.9125 12.267-8.9125 28.878 0 41.145z"/>
</g>
<!-- drawing style -->
<g fill="none" stroke="#000" stroke-width=".1">
<path d="m7.7254 23.776c-10.301 3.3469-21.585-0.3196-27.951-9.0818l-8.0902 5.8779c8.9125 12.267 24.71 17.4 39.131 12.714z"/>
</g>
<!-- drawing style -->
<g fill="#f3d05c">
<path d="m7.7254 23.776c-10.301 3.3469-21.585-0.3196-27.951-9.0818l-8.0902 5.8779c8.9125 12.267 24.71 17.4 39.131 12.714z"/>
</g>
<!-- drawing style -->
<g fill="none" stroke="#000" stroke-width=".1">
<path d="m25 0c0 10.831-6.974 20.43-17.275 23.776l3.0902 9.5106c14.421-4.6856 24.184-18.124 24.184-33.287z"/>
</g>
<!-- drawing style -->
<g fill="#adcf60">
<path d="m25 0c0 10.831-6.974 20.43-17.275 23.776l3.0902 9.5106c14.421-4.6856 24.184-18.124 24.184-33.287z"/>
</g>
<!-- drawing style -->
</g>
<g transform="matrix(.18716 0 0 .18716 9.8204 139.14)">
<text fill="#000000" font-family="Helvetica" font-size="12px">STK11IP</text>
</g>
<g transform="matrix(.18716 0 0 .18716 42.991 155.04)">
<g fill="#fff">
<path d="m123.31-38.777c0 13.807-11.193 25-25 25-13.807 0-25-11.193-25-25 0-13.807 11.193-25 25-25 13.807 0 25 11.193 25 25z"/>
</g>
<!-- drawing style -->
</g>
<g transform="matrix(.18716 0 0 .18716 61.391 147.78)">
<g fill="none" stroke="#000" stroke-width=".1">
<path d="m7.7254-23.776c10.301 3.3469 17.275 12.946 17.275 23.776h10c0-15.163-9.7636-28.601-24.184-33.287z"/>
</g>
<!-- drawing style -->
<g fill="#be989c">
<path d="m7.7254-23.776c10.301 3.3469 17.275 12.946 17.275 23.776h10c0-15.163-9.7636-28.601-24.184-33.287z"/>
</g>
<!-- drawing style -->
<g fill="none" stroke="#000" stroke-width=".1">
<path d="m-20.225-14.695c6.3661-8.7622 17.65-12.429 27.951-9.0818l3.0902-9.5106c-14.421-4.6856-30.219 0.44744-39.131 12.714z"/>
</g>
<!-- drawing style -->
<g fill="#66c2a5">
<path d="m-20.225-14.695c6.3661-8.7622 17.65-12.429 27.951-9.0818l3.0902-9.5106c-14.421-4.6856-30.219 0.44744-39.131 12.714z"/>
</g>
<!-- drawing style -->
<g fill="none" stroke="#000" stroke-width=".1">
<path d="m-20.225 14.695c-6.3661-8.7622-6.3661-20.627 0-29.389l-8.0902-5.8779c-8.9125 12.267-8.9125 28.878 0 41.145z"/>
</g>
<!-- drawing style -->
<g fill="#db9971">
<path d="m-20.225 14.695c-6.3661-8.7622-6.3661-20.627 0-29.389l-8.0902-5.8779c-8.9125 12.267-8.9125 28.878 0 41.145z"/>
</g>
<!-- drawing style -->
<g fill="none" stroke="#000" stroke-width=".1">
<path d="m7.7254 23.776c-10.301 3.3469-21.585-0.3196-27.951-9.0818l-8.0902 5.8779c8.9125 12.267 24.71 17.4 39.131 12.714z"/>
</g>
<!-- drawing style -->
<g fill="#f3d05c">
<path d="m7.7254 23.776c-10.301 3.3469-21.585-0.3196-27.951-9.0818l-8.0902 5.8779c8.9125 12.267 24.71 17.4 39.131 12.714z"/>
</g>
<!-- drawing style -->
<g fill="none" stroke="#000" stroke-width=".1">
<path d="m25 0c0 10.831-6.974 20.43-17.275 23.776l3.0902 9.5106c14.421-4.6856 24.184-18.124 24.184-33.287z"/>
</g>
<!-- drawing style -->
<g fill="#adcf60">
<path d="m25 0c0 10.831-6.974 20.43-17.275 23.776l3.0902 9.5106c14.421-4.6856 24.184-18.124 24.184-33.287z"/>
</g>
<!-- drawing style -->
</g>
<g transform="matrix(.18716 0 0 .18716 57.709 148.51)">
<text fill="#000000" font-family="Helvetica" font-size="12px">HEBP2</text>
</g>
<g transform="matrix(.18716 0 0 .18716 42.991 155.04)">
<g fill="#fff">
<path d="m73.869 214.95c0 13.807-11.193 25-25 25-13.807 0-25-11.193-25-25s11.193-25 25-25c13.807 0 25 11.193 25 25z"/>
</g>
<!-- drawing style -->
</g>
<g transform="matrix(.18716 0 0 .18716 52.137 195.27)">
<g fill="none" stroke="#000" stroke-width=".1">
<path d="m25 0c0 13.807-11.193 25-25 25s-25-11.193-25-25 11.193-25 25-25 25 11.193 25 25h10c0-19.33-15.67-35-35-35s-35 15.67-35 35 15.67 35 35 35 35-15.67 35-35z"/>
</g>
<!-- drawing style -->
<g fill="#adcf60">
<path d="m25 0c0 13.807-11.193 25-25 25s-25-11.193-25-25 11.193-25 25-25 25 11.193 25 25h10c0-19.33-15.67-35-35-35s-35 15.67-35 35 15.67 35 35 35 35-15.67 35-35z"/>
</g>
<!-- drawing style -->
</g>
<g transform="matrix(.18716 0 0 .18716 48.518 196)">
<text fill="#000000" font-family="Helvetica" font-size="12px">MPZL2</text>
</g>
<g transform="matrix(.18716 0 0 .18716 42.991 155.04)">
<g fill="#fff">
<path d="m-73.692-170.41c0 13.807-11.193 25-25 25-13.807 0-25-11.193-25-25 0-13.807 11.193-25 25-25 13.807 0 25 11.193 25 25z"/>
</g>
<!-- drawing style -->
</g>
<g transform="matrix(.18716 0 0 .18716 24.519 123.15)">
<g fill="none" stroke="#000" stroke-width=".1">
<path d="m7.7254-23.776c10.301 3.3469 17.275 12.946 17.275 23.776h10c0-15.163-9.7636-28.601-24.184-33.287z"/>
</g>
<!-- drawing style -->
<g fill="#be989c">
<path d="m7.7254-23.776c10.301 3.3469 17.275 12.946 17.275 23.776h10c0-15.163-9.7636-28.601-24.184-33.287z"/>
</g>
<!-- drawing style -->
<g fill="none" stroke="#000" stroke-width=".1">
<path d="m-20.225-14.695c6.3661-8.7622 17.65-12.429 27.951-9.0818l3.0902-9.5106c-14.421-4.6856-30.219 0.44744-39.131 12.714z"/>
</g>
<!-- drawing style -->
<g fill="#66c2a5">
<path d="m-20.225-14.695c6.3661-8.7622 17.65-12.429 27.951-9.0818l3.0902-9.5106c-14.421-4.6856-30.219 0.44744-39.131 12.714z"/>
</g>
<!-- drawing style -->
<g fill="none" stroke="#000" stroke-width=".1">
<path d="m-20.225 14.695c-6.3661-8.7622-6.3661-20.627 0-29.389l-8.0902-5.8779c-8.9125 12.267-8.9125 28.878 0 41.145z"/>
</g>
<!-- drawing style -->
<g fill="#db9971">
<path d="m-20.225 14.695c-6.3661-8.7622-6.3661-20.627 0-29.389l-8.0902-5.8779c-8.9125 12.267-8.9125 28.878 0 41.145z"/>
</g>
<!-- drawing style -->
<g fill="none" stroke="#000" stroke-width=".1">
<path d="m7.7254 23.776c-10.301 3.3469-21.585-0.3196-27.951-9.0818l-8.0902 5.8779c8.9125 12.267 24.71 17.4 39.131 12.714z"/>
</g>
<!-- drawing style -->
<g fill="#f3d05c">
<path d="m7.7254 23.776c-10.301 3.3469-21.585-0.3196-27.951-9.0818l-8.0902 5.8779c8.9125 12.267 24.71 17.4 39.131 12.714z"/>
</g>
<!-- drawing style -->
<g fill="none" stroke="#000" stroke-width=".1">
<path d="m25 0c0 10.831-6.974 20.43-17.275 23.776l3.0902 9.5106c14.421-4.6856 24.184-18.124 24.184-33.287z"/>
</g>
<!-- drawing style -->
<g fill="#adcf60">
<path d="m25 0c0 10.831-6.974 20.43-17.275 23.776l3.0902 9.5106c14.421-4.6856 24.184-18.124 24.184-33.287z"/>
</g>
<!-- drawing style -->
</g>
<g transform="matrix(.18716 0 0 .18716 20.961 123.87)">
<text fill="#000000" font-family="Helvetica" font-size="12px">PLAC8</text>
</g>
<g transform="matrix(.18716 0 0 .18716 42.991 155.04)">
<g fill="#fff">
<path d="m225.87 113.39c0 13.807-11.193 25-25 25s-25-11.193-25-25 11.193-25 25-25 25 11.193 25 25z"/>
</g>
<!-- drawing style -->
</g>
<g transform="matrix(.18716 0 0 .18716 80.585 176.26)">
<g fill="none" stroke="#000" stroke-width=".1">
<path d="m25 0c0 13.807-11.193 25-25 25s-25-11.193-25-25 11.193-25 25-25 25 11.193 25 25h10c0-19.33-15.67-35-35-35s-35 15.67-35 35 15.67 35 35 35 35-15.67 35-35z"/>
</g>
<!-- drawing style -->
<g fill="#adcf60">
<path d="m25 0c0 13.807-11.193 25-25 25s-25-11.193-25-25 11.193-25 25-25 25 11.193 25 25h10c0-19.33-15.67-35-35-35s-35 15.67-35 35 15.67 35 35 35 35-15.67 35-35z"/>
</g>
<!-- drawing style -->
</g>
<g transform="matrix(.18716 0 0 .18716 76.779 176.99)">
<text fill="#000000" font-family="Helvetica" font-size="12px">RCSD1</text>
</g>
<g transform="matrix(.18716 0 0 .18716 42.991 155.04)">
<g fill="#fff">
<path d="m104.17-135.03c0 13.807-11.193 25-25 25-13.807 0-25-11.193-25-25s11.193-25 25-25c13.807 0 25 11.193 25 25z"/>
</g>
<!-- drawing style -->
</g>
<g transform="matrix(.18716 0 0 .18716 57.808 129.77)">
<g fill="none" stroke="#000" stroke-width=".1">
<path d="m7.7254-23.776c10.301 3.3469 17.275 12.946 17.275 23.776h10c0-15.163-9.7636-28.601-24.184-33.287z"/>
</g>
<!-- drawing style -->
<g fill="#be989c">
<path d="m7.7254-23.776c10.301 3.3469 17.275 12.946 17.275 23.776h10c0-15.163-9.7636-28.601-24.184-33.287z"/>
</g>
<!-- drawing style -->
<g fill="none" stroke="#000" stroke-width=".1">
<path d="m-20.225-14.695c6.3661-8.7622 17.65-12.429 27.951-9.0818l3.0902-9.5106c-14.421-4.6856-30.219 0.44744-39.131 12.714z"/>
</g>
<!-- drawing style -->
<g fill="#66c2a5">
<path d="m-20.225-14.695c6.3661-8.7622 17.65-12.429 27.951-9.0818l3.0902-9.5106c-14.421-4.6856-30.219 0.44744-39.131 12.714z"/>
</g>
<!-- drawing style -->
<g fill="none" stroke="#000" stroke-width=".1">
<path d="m-20.225 14.695c-6.3661-8.7622-6.3661-20.627 0-29.389l-8.0902-5.8779c-8.9125 12.267-8.9125 28.878 0 41.145z"/>
</g>
<!-- drawing style -->
<g fill="#db9971">
<path d="m-20.225 14.695c-6.3661-8.7622-6.3661-20.627 0-29.389l-8.0902-5.8779c-8.9125 12.267-8.9125 28.878 0 41.145z"/>
</g>
<!-- drawing style -->
<g fill="none" stroke="#000" stroke-width=".1">
<path d="m7.7254 23.776c-10.301 3.3469-21.585-0.3196-27.951-9.0818l-8.0902 5.8779c8.9125 12.267 24.71 17.4 39.131 12.714z"/>
</g>
<!-- drawing style -->
<g fill="#f3d05c">
<path d="m7.7254 23.776c-10.301 3.3469-21.585-0.3196-27.951-9.0818l-8.0902 5.8779c8.9125 12.267 24.71 17.4 39.131 12.714z"/>
</g>
<!-- drawing style -->
<g fill="none" stroke="#000" stroke-width=".1">
<path d="m25 0c0 10.831-6.974 20.43-17.275 23.776l3.0902 9.5106c14.421-4.6856 24.184-18.124 24.184-33.287z"/>
</g>
<!-- drawing style -->
<g fill="#adcf60">
<path d="m25 0c0 10.831-6.974 20.43-17.275 23.776l3.0902 9.5106c14.421-4.6856 24.184-18.124 24.184-33.287z"/>
</g>
<!-- drawing style -->
</g>
<g transform="matrix(.18716 0 0 .18716 54.562 130.49)">
<text fill="#000000" font-family="Helvetica" font-size="12px">PADI2</text>
</g>
<g transform="matrix(.18716 0 0 .18716 42.991 155.04)">
<g fill="#fff">
<path d="m-27.468 61.972c0 13.807-11.193 25-25 25-13.807 0-25-11.193-25-25s11.193-25 25-25c13.807 0 25 11.193 25 25z"/>
</g>
<!-- drawing style -->
</g>
<g transform="matrix(.18716 0 0 .18716 33.171 166.64)">
<g fill="none" stroke="#000" stroke-width=".1">
<path d="m7.7254-23.776c10.301 3.3469 17.275 12.946 17.275 23.776h10c0-15.163-9.7636-28.601-24.184-33.287z"/>
</g>
<!-- drawing style -->
<g fill="#be989c">
<path d="m7.7254-23.776c10.301 3.3469 17.275 12.946 17.275 23.776h10c0-15.163-9.7636-28.601-24.184-33.287z"/>
</g>
<!-- drawing style -->
<g fill="none" stroke="#000" stroke-width=".1">
<path d="m-20.225-14.695c6.3661-8.7622 17.65-12.429 27.951-9.0818l3.0902-9.5106c-14.421-4.6856-30.219 0.44744-39.131 12.714z"/>
</g>
<!-- drawing style -->
<g fill="#66c2a5">
<path d="m-20.225-14.695c6.3661-8.7622 17.65-12.429 27.951-9.0818l3.0902-9.5106c-14.421-4.6856-30.219 0.44744-39.131 12.714z"/>
</g>
<!-- drawing style -->
<g fill="none" stroke="#000" stroke-width=".1">
<path d="m-20.225 14.695c-6.3661-8.7622-6.3661-20.627 0-29.389l-8.0902-5.8779c-8.9125 12.267-8.9125 28.878 0 41.145z"/>
</g>
<!-- drawing style -->
<g fill="#db9971">
<path d="m-20.225 14.695c-6.3661-8.7622-6.3661-20.627 0-29.389l-8.0902-5.8779c-8.9125 12.267-8.9125 28.878 0 41.145z"/>
</g>
<!-- drawing style -->
<g fill="none" stroke="#000" stroke-width=".1">
<path d="m7.7254 23.776c-10.301 3.3469-21.585-0.3196-27.951-9.0818l-8.0902 5.8779c8.9125 12.267 24.71 17.4 39.131 12.714z"/>
</g>
<!-- drawing style -->
<g fill="#f3d05c">
<path d="m7.7254 23.776c-10.301 3.3469-21.585-0.3196-27.951-9.0818l-8.0902 5.8779c8.9125 12.267 24.71 17.4 39.131 12.714z"/>
</g>
<!-- drawing style -->
<g fill="none" stroke="#000" stroke-width=".1">
<path d="m25 0c0 10.831-6.974 20.43-17.275 23.776l3.0902 9.5106c14.421-4.6856 24.184-18.124 24.184-33.287z"/>
</g>
<!-- drawing style -->
<g fill="#adcf60">
<path d="m25 0c0 10.831-6.974 20.43-17.275 23.776l3.0902 9.5106c14.421-4.6856 24.184-18.124 24.184-33.287z"/>
</g>
<!-- drawing style -->
</g>
<g transform="matrix(.18716 0 0 .18716 28.677 167.36)">
<text fill="#000000" font-family="Helvetica" font-size="12px">CPPED1</text>
</g>
<g transform="matrix(.18716 0 0 .18716 42.991 155.04)">
<g fill="#66f">
<path d="m68.788 42.825c0 13.807-11.193 25-25 25-13.807 0-25-11.193-25-25s11.193-25 25-25c13.807 0 25 11.193 25 25z"/>
</g>
<!-- drawing style -->
</g>
<g transform="matrix(.18716 0 0 .18716 51.186 163.06)">
<g fill="none" stroke="#000" stroke-width=".1">
<path d="m7.7254-23.776c10.301 3.3469 17.275 12.946 17.275 23.776h10c0-15.163-9.7636-28.601-24.184-33.287z"/>
</g>
<!-- drawing style -->
<g fill="#be989c">
<path d="m7.7254-23.776c10.301 3.3469 17.275 12.946 17.275 23.776h10c0-15.163-9.7636-28.601-24.184-33.287z"/>
</g>
<!-- drawing style -->
<g fill="none" stroke="#000" stroke-width=".1">
<path d="m-20.225-14.695c6.3661-8.7622 17.65-12.429 27.951-9.0818l3.0902-9.5106c-14.421-4.6856-30.219 0.44744-39.131 12.714z"/>
</g>
<!-- drawing style -->
<g fill="#66c2a5">
<path d="m-20.225-14.695c6.3661-8.7622 17.65-12.429 27.951-9.0818l3.0902-9.5106c-14.421-4.6856-30.219 0.44744-39.131 12.714z"/>
</g>
<!-- drawing style -->
<g fill="none" stroke="#000" stroke-width=".1">
<path d="m-20.225 14.695c-6.3661-8.7622-6.3661-20.627 0-29.389l-8.0902-5.8779c-8.9125 12.267-8.9125 28.878 0 41.145z"/>
</g>
<!-- drawing style -->
<g fill="#db9971">
<path d="m-20.225 14.695c-6.3661-8.7622-6.3661-20.627 0-29.389l-8.0902-5.8779c-8.9125 12.267-8.9125 28.878 0 41.145z"/>
</g>
<!-- drawing style -->
<g fill="none" stroke="#000" stroke-width=".1">
<path d="m7.7254 23.776c-10.301 3.3469-21.585-0.3196-27.951-9.0818l-8.0902 5.8779c8.9125 12.267 24.71 17.4 39.131 12.714z"/>
</g>
<!-- drawing style -->
<g fill="#f3d05c">
<path d="m7.7254 23.776c-10.301 3.3469-21.585-0.3196-27.951-9.0818l-8.0902 5.8779c8.9125 12.267 24.71 17.4 39.131 12.714z"/>
</g>
<!-- drawing style -->
<g fill="none" stroke="#000" stroke-width=".1">
<path d="m25 0c0 10.831-6.974 20.43-17.275 23.776l3.0902 9.5106c14.421-4.6856 24.184-18.124 24.184-33.287z"/>
</g>
<!-- drawing style -->
<g fill="#adcf60">
<path d="m25 0c0 10.831-6.974 20.43-17.275 23.776l3.0902 9.5106c14.421-4.6856 24.184-18.124 24.184-33.287z"/>
</g>
<!-- drawing style -->
</g>
<g transform="matrix(.18716 0 0 .18716 47.317 163.78)">
<text fill="#000000" font-family="Helvetica" font-size="12px">CREG1</text>
</g>
<g transform="matrix(.18716 0 0 .18716 42.991 155.04)">
<g fill="#fff">
<path d="m-109.07 7.4472c0 13.807-11.193 25-25 25s-25-11.193-25-25c0-13.807 11.193-25 25-25s25 11.193 25 25z"/>
</g>
<!-- drawing style -->
</g>
<g transform="matrix(.18716 0 0 .18716 17.898 156.44)">
<g fill="none" stroke="#000" stroke-width=".1">
<path d="m7.7254-23.776c10.301 3.3469 17.275 12.946 17.275 23.776h10c0-15.163-9.7636-28.601-24.184-33.287z"/>
</g>
<!-- drawing style -->
<g fill="#be989c">
<path d="m7.7254-23.776c10.301 3.3469 17.275 12.946 17.275 23.776h10c0-15.163-9.7636-28.601-24.184-33.287z"/>
</g>
<!-- drawing style -->
<g fill="none" stroke="#000" stroke-width=".1">
<path d="m-20.225-14.695c6.3661-8.7622 17.65-12.429 27.951-9.0818l3.0902-9.5106c-14.421-4.6856-30.219 0.44744-39.131 12.714z"/>
</g>
<!-- drawing style -->
<g fill="#66c2a5">
<path d="m-20.225-14.695c6.3661-8.7622 17.65-12.429 27.951-9.0818l3.0902-9.5106c-14.421-4.6856-30.219 0.44744-39.131 12.714z"/>
</g>
<!-- drawing style -->
<g fill="none" stroke="#000" stroke-width=".1">
<path d="m-20.225 14.695c-6.3661-8.7622-6.3661-20.627 0-29.389l-8.0902-5.8779c-8.9125 12.267-8.9125 28.878 0 41.145z"/>
</g>
<!-- drawing style -->
<g fill="#db9971">
<path d="m-20.225 14.695c-6.3661-8.7622-6.3661-20.627 0-29.389l-8.0902-5.8779c-8.9125 12.267-8.9125 28.878 0 41.145z"/>
</g>
<!-- drawing style -->
<g fill="none" stroke="#000" stroke-width=".1">
<path d="m7.7254 23.776c-10.301 3.3469-21.585-0.3196-27.951-9.0818l-8.0902 5.8779c8.9125 12.267 24.71 17.4 39.131 12.714z"/>
</g>
<!-- drawing style -->
<g fill="#f3d05c">
<path d="m7.7254 23.776c-10.301 3.3469-21.585-0.3196-27.951-9.0818l-8.0902 5.8779c8.9125 12.267 24.71 17.4 39.131 12.714z"/>
</g>
<!-- drawing style -->
<g fill="none" stroke="#000" stroke-width=".1">
<path d="m25 0c0 10.831-6.974 20.43-17.275 23.776l3.0902 9.5106c14.421-4.6856 24.184-18.124 24.184-33.287z"/>
</g>
<!-- drawing style -->
<g fill="#adcf60">
<path d="m25 0c0 10.831-6.974 20.43-17.275 23.776l3.0902 9.5106c14.421-4.6856 24.184-18.124 24.184-33.287z"/>
</g>
<!-- drawing style -->
</g>
<g transform="matrix(.18716 0 0 .18716 13.278 157.16)">
<text fill="#000000" font-family="Helvetica" font-size="12px">C6orf120</text>
</g>
<g transform="matrix(.18716 0 0 .18716 42.991 155.04)">
<g fill="#fff">
<path d="m22.564-189.56c0 13.807-11.193 25-25 25-13.807 0-25-11.193-25-25s11.193-25 25-25c13.807 0 25 11.193 25 25z"/>
</g>
<!-- drawing style -->
</g>
<g transform="matrix(.18716 0 0 .18716 42.535 119.56)">
<g fill="none" stroke="#000" stroke-width=".1">
<path d="m7.7254-23.776c10.301 3.3469 17.275 12.946 17.275 23.776h10c0-15.163-9.7636-28.601-24.184-33.287z"/>
</g>
<!-- drawing style -->
<g fill="#be989c">
<path d="m7.7254-23.776c10.301 3.3469 17.275 12.946 17.275 23.776h10c0-15.163-9.7636-28.601-24.184-33.287z"/>
</g>
<!-- drawing style -->
<g fill="none" stroke="#000" stroke-width=".1">
<path d="m-20.225-14.695c6.3661-8.7622 17.65-12.429 27.951-9.0818l3.0902-9.5106c-14.421-4.6856-30.219 0.44744-39.131 12.714z"/>
</g>
<!-- drawing style -->
<g fill="#66c2a5">
<path d="m-20.225-14.695c6.3661-8.7622 17.65-12.429 27.951-9.0818l3.0902-9.5106c-14.421-4.6856-30.219 0.44744-39.131 12.714z"/>
</g>
<!-- drawing style -->
<g fill="none" stroke="#000" stroke-width=".1">
<path d="m-20.225 14.695c-6.3661-8.7622-6.3661-20.627 0-29.389l-8.0902-5.8779c-8.9125 12.267-8.9125 28.878 0 41.145z"/>
</g>
<!-- drawing style -->
<g fill="#db9971">
<path d="m-20.225 14.695c-6.3661-8.7622-6.3661-20.627 0-29.389l-8.0902-5.8779c-8.9125 12.267-8.9125 28.878 0 41.145z"/>
</g>
<!-- drawing style -->
<g fill="none" stroke="#000" stroke-width=".1">
<path d="m7.7254 23.776c-10.301 3.3469-21.585-0.3196-27.951-9.0818l-8.0902 5.8779c8.9125 12.267 24.71 17.4 39.131 12.714z"/>
</g>
<!-- drawing style -->
<g fill="#f3d05c">
<path d="m7.7254 23.776c-10.301 3.3469-21.585-0.3196-27.951-9.0818l-8.0902 5.8779c8.9125 12.267 24.71 17.4 39.131 12.714z"/>
</g>
<!-- drawing style -->
<g fill="none" stroke="#000" stroke-width=".1">
<path d="m25 0c0 10.831-6.974 20.43-17.275 23.776l3.0902 9.5106c14.421-4.6856 24.184-18.124 24.184-33.287z"/>
</g>
<!-- drawing style -->
<g fill="#adcf60">
<path d="m25 0c0 10.831-6.974 20.43-17.275 23.776l3.0902 9.5106c14.421-4.6856 24.184-18.124 24.184-33.287z"/>
</g>
<!-- drawing style -->
</g>
<g transform="matrix(.18716 0 0 .18716 38.042 120.29)">
<text fill="#000000" font-family="Helvetica" font-size="12px">NHLRC3</text>
</g>
<g transform="matrix(.18716 0 0 .18716 42.991 155.04)">
<g fill="#fff">
<path d="m158.11 176.5c0 13.807-11.193 25-25 25-13.807 0-25-11.193-25-25 0-13.807 11.193-25 25-25 13.807 0 25 11.193 25 25z"/>
</g>
<!-- drawing style -->
</g>
<g transform="matrix(.18716 0 0 .18716 67.904 188.08)">
<g fill="none" stroke="#000" stroke-width=".1">
<path d="m-12.5-21.651c7.735-4.4658 17.265-4.4658 25 0 7.735 4.4658 12.5 12.719 12.5 21.651h10c0-12.504-6.671-24.059-17.5-30.311-10.829-6.2521-24.171-6.2521-35 0z"/>
</g>
<!-- drawing style -->
<g fill="#db9971">
<path d="m-12.5-21.651c7.735-4.4658 17.265-4.4658 25 0 7.735 4.4658 12.5 12.719 12.5 21.651h10c0-12.504-6.671-24.059-17.5-30.311-10.829-6.2521-24.171-6.2521-35 0z"/>
</g>
<!-- drawing style -->
<g fill="none" stroke="#000" stroke-width=".1">
<path d="m-12.5 21.651c-7.735-4.4658-12.5-12.719-12.5-21.651s4.765-17.185 12.5-21.651l-5-8.6603c-10.829 6.2521-17.5 17.807-17.5 30.311s6.671 24.059 17.5 30.311z"/>
</g>
<!-- drawing style -->
<g fill="#f3d05c">
<path d="m-12.5 21.651c-7.735-4.4658-12.5-12.719-12.5-21.651s4.765-17.185 12.5-21.651l-5-8.6603c-10.829 6.2521-17.5 17.807-17.5 30.311s6.671 24.059 17.5 30.311z"/>
</g>
<!-- drawing style -->
<g fill="none" stroke="#000" stroke-width=".1">
<path d="m25 0c0 8.9316-4.765 17.185-12.5 21.651-7.735 4.4658-17.265 4.4658-25 0l-5 8.6603c10.829 6.2521 24.171 6.2521 35 0 10.829-6.2521 17.5-17.807 17.5-30.311z"/>
</g>
<!-- drawing style -->
<g fill="#adcf60">
<path d="m25 0c0 8.9316-4.765 17.185-12.5 21.651-7.735 4.4658-17.265 4.4658-25 0l-5 8.6603c10.829 6.2521 24.171 6.2521 35 0 10.829-6.2521 17.5-17.807 17.5-30.311z"/>
</g>
<!-- drawing style -->
</g>
<g transform="matrix(.18716 0 0 .18716 64.346 188.8)">
<text fill="#000000" font-family="Helvetica" font-size="12px">SNX19</text>
</g>
<text x="5.8317699" y="12.948466" fill="#000000" font-family="'Times New Roman'" font-size="10.583px" stroke-width=".26458" style="font-variant-caps:normal;font-variant-east-asian:normal;font-variant-ligatures:normal;font-variant-numeric:normal;line-height:1.25" xml:space="preserve"><tspan x="5.8317699" y="12.948466" font-family="'Times New Roman'" font-size="10.583px" stroke-width=".26458" style="font-variant-caps:normal;font-variant-east-asian:normal;font-variant-ligatures:normal;font-variant-numeric:normal">A</tspan></text>
<rect x="2.6458" y="107.16" width="142.88" height="99.219" fill="none" stroke="#999" stroke-dasharray="1.5, 0.499999" stroke-miterlimit="10" stroke-width=".5"/>
<rect x="152.14" y="2.6458" width="142.88" height="203.73" fill="none" stroke="#999" stroke-dasharray="2.14942, 0.716471" stroke-miterlimit="10" stroke-width=".71647"/>
<g transform="matrix(.19458 0 0 .19458 212.89 57.623)">
<g fill="none" stroke="#1f293d">
<g stroke-opacity=".60784" stroke-width="3.644">
<path d="m17.892-58.843 13.596-109.51"/>
</g>
<!-- drawing style -->
<g stroke-opacity=".6" stroke-width="3.6">
<path d="m104.7-183.48-45.365-6.2668"/>
</g>
<!-- drawing style -->
<g stroke-opacity=".60392" stroke-width="3.628">
<path d="m144.44-106.95-90.207-70.783"/>
</g>
<!-- drawing style -->
<g stroke-opacity=".6" stroke-width="3.6">
<path d="m30.251-53.696 83.774-106.7"/>
</g>
<!-- drawing style -->
<g stroke-opacity=".60784" stroke-width="3.644">
<path d="m155-114.8-16.427-41.978"/>
</g>
<!-- drawing style -->
<g stroke-opacity=".54118" stroke-width="3.252">
<path d="m184.72-105.66 82.453-56.581"/>
</g>
<!-- drawing style -->
<g stroke-opacity=".61569" stroke-width="3.684">
<path d="m38.142-43.016 102.64-39.517"/>
</g>
<!-- drawing style -->
</g>
<g fill="#f66">
<path d="m59.569-193.16c0 13.807-11.193 25-25 25s-25-11.193-25-25 11.193-25 25-25 25 11.193 25 25z"/>
</g>
<!-- drawing style -->
</g>
<g transform="matrix(.19458 0 0 .19458 219.62 20.037)">
<g fill="none" stroke="#000" stroke-width=".1">
<path d="m7.7254-23.776c10.301 3.3469 17.275 12.946 17.275 23.776h10c0-15.163-9.7636-28.601-24.184-33.287z"/>
</g>
<!-- drawing style -->
<g fill="#7fc97f">
<path d="m7.7254-23.776c10.301 3.3469 17.275 12.946 17.275 23.776h10c0-15.163-9.7636-28.601-24.184-33.287z"/>
</g>
<!-- drawing style -->
<g fill="none" stroke="#000" stroke-width=".1">
<path d="m-20.225-14.695c6.3661-8.7622 17.65-12.429 27.951-9.0818l3.0902-9.5106c-14.421-4.6856-30.219 0.44744-39.131 12.714z"/>
</g>
<!-- drawing style -->
<g fill="#666">
<path d="m-20.225-14.695c6.3661-8.7622 17.65-12.429 27.951-9.0818l3.0902-9.5106c-14.421-4.6856-30.219 0.44744-39.131 12.714z"/>
</g>
<!-- drawing style -->
<g fill="none" stroke="#000" stroke-width=".1">
<path d="m-20.225 14.695c-6.3661-8.7622-6.3661-20.627 0-29.389l-8.0902-5.8779c-8.9125 12.267-8.9125 28.878 0 41.145z"/>
</g>
<!-- drawing style -->
<g fill="#b0b4c1">
<path d="m-20.225 14.695c-6.3661-8.7622-6.3661-20.627 0-29.389l-8.0902-5.8779c-8.9125 12.267-8.9125 28.878 0 41.145z"/>
</g>
<!-- drawing style -->
<g fill="none" stroke="#000" stroke-width=".1">
<path d="m7.7254 23.776c-10.301 3.3469-21.585-0.3196-27.951-9.0818l-8.0902 5.8779c8.9125 12.267 24.71 17.4 39.131 12.714z"/>
</g>
<!-- drawing style -->
<g fill="#ab5d29">
<path d="m7.7254 23.776c-10.301 3.3469-21.585-0.3196-27.951-9.0818l-8.0902 5.8779c8.9125 12.267 24.71 17.4 39.131 12.714z"/>
</g>
<!-- drawing style -->
<g fill="none" stroke="#000" stroke-width=".1">
<path d="m25 0c0 10.831-6.974 20.43-17.275 23.776l3.0902 9.5106c14.421-4.6856 24.184-18.124 24.184-33.287z"/>
</g>
<!-- drawing style -->
<g fill="#e1b8a9">
<path d="m25 0c0 10.831-6.974 20.43-17.275 23.776l3.0902 9.5106c14.421-4.6856 24.184-18.124 24.184-33.287z"/>
</g>
<!-- drawing style -->
</g>
<g transform="matrix(.19458 0 0 .19458 215.66 20.79)">
<text fill="#000000" font-family="Helvetica" font-size="12px">MATN3</text>
</g>
<g transform="matrix(.19458 0 0 .19458 212.89 57.623)">
<g fill="#f66">
<path d="m154.46-180.06c0 13.807-11.193 25-25 25s-25-11.193-25-25c0-13.807 11.193-25 25-25s25 11.193 25 25z"/>
</g>
<!-- drawing style -->
</g>
<g transform="matrix(.19458 0 0 .19458 238.08 22.588)">
<g fill="none" stroke="#000" stroke-width=".1">
<path d="m0-25c13.807 0 25 11.193 25 25h10c0-19.33-15.67-35-35-35z"/>
</g>
<!-- drawing style -->
<g fill="#7fc97f">
<path d="m0-25c13.807 0 25 11.193 25 25h10c0-19.33-15.67-35-35-35z"/>
</g>
<!-- drawing style -->
<g fill="none" stroke="#000" stroke-width=".1">
<path d="m-25 0c0-13.807 11.193-25 25-25v-10c-19.33 0-35 15.67-35 35z"/>
</g>
<!-- drawing style -->
<g fill="#666">
<path d="m-25 0c0-13.807 11.193-25 25-25v-10c-19.33 0-35 15.67-35 35z"/>
</g>
<!-- drawing style -->
<g fill="none" stroke="#000" stroke-width=".1">
<path d="m0 25c-13.807 0-25-11.193-25-25h-10c0 19.33 15.67 35 35 35z"/>
</g>
<!-- drawing style -->
<g fill="#b0b4c1">
<path d="m0 25c-13.807 0-25-11.193-25-25h-10c0 19.33 15.67 35 35 35z"/>
</g>
<!-- drawing style -->
<g fill="none" stroke="#000" stroke-width=".1">
<path d="m25 0c0 13.807-11.193 25-25 25v10c19.33 0 35-15.67 35-35z"/>
</g>
<!-- drawing style -->
<g fill="#e1b8a9">
<path d="m25 0c0 13.807-11.193 25-25 25v10c19.33 0 35-15.67 35-35z"/>
</g>
<!-- drawing style -->
</g>
<g transform="matrix(.19458 0 0 .19458 233.99 23.341)">
<text fill="#000000" font-family="Helvetica" font-size="12px">GOLM1</text>
</g>
<g transform="matrix(.19458 0 0 .19458 212.89 57.623)">
<g fill="#f66">
<path d="m312.79-176.39c0 13.807-11.193 25-25 25-13.807 0-25-11.193-25-25s11.193-25 25-25c13.807 0 25 11.193 25 25z"/>
</g>
<!-- drawing style -->
</g>
<g transform="matrix(.19458 0 0 .19458 268.89 23.301)">
<g fill="none" stroke="#000" stroke-width=".1">
<path d="m-25 0c0-13.807 11.193-25 25-25s25 11.193 25 25h10c0-19.33-15.67-35-35-35s-35 15.67-35 35z"/>
</g>
<!-- drawing style -->
<g fill="#7fc97f">
<path d="m-25 0c0-13.807 11.193-25 25-25s25 11.193 25 25h10c0-19.33-15.67-35-35-35s-35 15.67-35 35z"/>
</g>
<!-- drawing style -->
<g fill="none" stroke="#000" stroke-width=".1">
<path d="m25 0c0 13.807-11.193 25-25 25s-25-11.193-25-25h-10c0 19.33 15.67 35 35 35s35-15.67 35-35z"/>
</g>
<!-- drawing style -->
<g fill="#e1b8a9">
<path d="m25 0c0 13.807-11.193 25-25 25s-25-11.193-25-25h-10c0 19.33 15.67 35 35 35s35-15.67 35-35z"/>
</g>
<!-- drawing style -->
</g>
<g transform="matrix(.19458 0 0 .19458 265.78 24.054)">
<text fill="#000000" font-family="Helvetica" font-size="12px">CALR</text>
</g>
<g transform="matrix(.19458 0 0 .19458 212.89 57.623)">
<g fill="#f66">
<path d="m189.11-91.515c0 13.807-11.193 25-25 25s-25-11.193-25-25c0-13.807 11.193-25 25-25s25 11.193 25 25z"/>
</g>
<!-- drawing style -->
</g>
<g transform="matrix(.19458 0 0 .19458 244.82 39.816)">
<g fill="none" stroke="#000" stroke-width=".1">
<path d="m7.7254-23.776c10.301 3.3469 17.275 12.946 17.275 23.776h10c0-15.163-9.7636-28.601-24.184-33.287z"/>
</g>
<!-- drawing style -->
<g fill="#7fc97f">
<path d="m7.7254-23.776c10.301 3.3469 17.275 12.946 17.275 23.776h10c0-15.163-9.7636-28.601-24.184-33.287z"/>
</g>
<!-- drawing style -->
<g fill="none" stroke="#000" stroke-width=".1">
<path d="m-20.225-14.695c6.3661-8.7622 17.65-12.429 27.951-9.0818l3.0902-9.5106c-14.421-4.6856-30.219 0.44744-39.131 12.714z"/>
</g>
<!-- drawing style -->
<g fill="#666">
<path d="m-20.225-14.695c6.3661-8.7622 17.65-12.429 27.951-9.0818l3.0902-9.5106c-14.421-4.6856-30.219 0.44744-39.131 12.714z"/>
</g>
<!-- drawing style -->
<g fill="none" stroke="#000" stroke-width=".1">
<path d="m-20.225 14.695c-6.3661-8.7622-6.3661-20.627 0-29.389l-8.0902-5.8779c-8.9125 12.267-8.9125 28.878 0 41.145z"/>
</g>
<!-- drawing style -->
<g fill="#b0b4c1">
<path d="m-20.225 14.695c-6.3661-8.7622-6.3661-20.627 0-29.389l-8.0902-5.8779c-8.9125 12.267-8.9125 28.878 0 41.145z"/>
</g>
<!-- drawing style -->
<g fill="none" stroke="#000" stroke-width=".1">
<path d="m7.7254 23.776c-10.301 3.3469-21.585-0.3196-27.951-9.0818l-8.0902 5.8779c8.9125 12.267 24.71 17.4 39.131 12.714z"/>
</g>
<!-- drawing style -->
<g fill="#ab5d29">
<path d="m7.7254 23.776c-10.301 3.3469-21.585-0.3196-27.951-9.0818l-8.0902 5.8779c8.9125 12.267 24.71 17.4 39.131 12.714z"/>
</g>
<!-- drawing style -->
<g fill="none" stroke="#000" stroke-width=".1">
<path d="m25 0c0 10.831-6.974 20.43-17.275 23.776l3.0902 9.5106c14.421-4.6856 24.184-18.124 24.184-33.287z"/>
</g>
<!-- drawing style -->
<g fill="#e1b8a9">
<path d="m25 0c0 10.831-6.974 20.43-17.275 23.776l3.0902 9.5106c14.421-4.6856 24.184-18.124 24.184-33.287z"/>
</g>
<!-- drawing style -->
</g>
<g transform="matrix(.19458 0 0 .19458 242.49 40.569)">
<text fill="#000000" font-family="Helvetica" font-size="12px">APP</text>
</g>
<g transform="matrix(.19458 0 0 .19458 212.89 57.623)">
<g fill="#f66">
<path d="m39.812-34.033c0 13.807-11.193 25-25 25-13.807 0-25-11.193-25-25 0-13.807 11.193-25 25-25 13.807 0 25 11.193 25 25z"/>
</g>
<!-- drawing style -->
</g>
<g transform="matrix(.19458 0 0 .19458 215.77 51.001)">
<g fill="none" stroke="#000" stroke-width=".1">
<path d="m7.7254-23.776c10.301 3.3469 17.275 12.946 17.275 23.776h10c0-15.163-9.7636-28.601-24.184-33.287z"/>
</g>
<!-- drawing style -->
<g fill="#7fc97f">
<path d="m7.7254-23.776c10.301 3.3469 17.275 12.946 17.275 23.776h10c0-15.163-9.7636-28.601-24.184-33.287z"/>
</g>
<!-- drawing style -->
<g fill="none" stroke="#000" stroke-width=".1">
<path d="m-20.225-14.695c6.3661-8.7622 17.65-12.429 27.951-9.0818l3.0902-9.5106c-14.421-4.6856-30.219 0.44744-39.131 12.714z"/>
</g>
<!-- drawing style -->
<g fill="#666">
<path d="m-20.225-14.695c6.3661-8.7622 17.65-12.429 27.951-9.0818l3.0902-9.5106c-14.421-4.6856-30.219 0.44744-39.131 12.714z"/>
</g>
<!-- drawing style -->
<g fill="none" stroke="#000" stroke-width=".1">
<path d="m-20.225 14.695c-6.3661-8.7622-6.3661-20.627 0-29.389l-8.0902-5.8779c-8.9125 12.267-8.9125 28.878 0 41.145z"/>
</g>
<!-- drawing style -->
<g fill="#b0b4c1">
<path d="m-20.225 14.695c-6.3661-8.7622-6.3661-20.627 0-29.389l-8.0902-5.8779c-8.9125 12.267-8.9125 28.878 0 41.145z"/>
</g>
<!-- drawing style -->
<g fill="none" stroke="#000" stroke-width=".1">
<path d="m7.7254 23.776c-10.301 3.3469-21.585-0.3196-27.951-9.0818l-8.0902 5.8779c8.9125 12.267 24.71 17.4 39.131 12.714z"/>
</g>
<!-- drawing style -->
<g fill="#ab5d29">
<path d="m7.7254 23.776c-10.301 3.3469-21.585-0.3196-27.951-9.0818l-8.0902 5.8779c8.9125 12.267 24.71 17.4 39.131 12.714z"/>
</g>
<!-- drawing style -->
<g fill="none" stroke="#000" stroke-width=".1">
<path d="m25 0c0 10.831-6.974 20.43-17.275 23.776l3.0902 9.5106c14.421-4.6856 24.184-18.124 24.184-33.287z"/>
</g>
<!-- drawing style -->
<g fill="#e1b8a9">
<path d="m25 0c0 10.831-6.974 20.43-17.275 23.776l3.0902 9.5106c14.421-4.6856 24.184-18.124 24.184-33.287z"/>
</g>
<!-- drawing style -->
</g>
<g transform="matrix(.19458 0 0 .19458 213.37 51.754)">
<text fill="#000000" font-family="Helvetica" font-size="12px">TNC</text>
</g>
<g transform="matrix(.16458 0 0 .16458 182.1 158.76)">
<g fill="none" stroke="#1f293d">
<g stroke-opacity=".60784" stroke-width="3.644">
<path d="m179.17-173.27 387.39 125.87"/>
</g>
<!-- drawing style -->
<g stroke-opacity=".60392" stroke-width="3.612">
<path d="m121.11-14.84 29.228-141.67"/>
</g>
<!-- drawing style -->
<g stroke-opacity=".60784" stroke-width="3.644">
<path d="m225.1 143.43-64.46-299.99"/>
</g>
<!-- drawing style -->
<g stroke-opacity=".6" stroke-width="3.608">
<path d="m492.2 122.27-318.23-286.54"/>
</g>
<!-- drawing style -->
<g stroke-opacity=".60392" stroke-width="3.628">
<path d="m315.23 176.61-149.64-334.79"/>
</g>
<g stroke-opacity=".6">
<!-- drawing style -->
<g stroke-width="3.604">
<path d="m547.89 45.614-370.85-214.11"/>
</g>
<!-- drawing style -->
<g stroke-width="3.608">
<path d="m212.38-231.91-38.343 34.253"/>
</g>
<!-- drawing style -->
<g stroke-width="3.6">
<path d="m156 75.977-0.54862-231.97"/>
<!-- drawing style -->
<path d="m409.5 168.76-239.42-329.53"/>
<!-- drawing style -->
<path d="m180.25-178.38 364.43 38.303"/>
</g>
<!-- drawing style -->
</g>
<g stroke-opacity=".61569" stroke-width="3.684">
<path d="m177.04-193.5 126.08-72.791"/>
</g>
<!-- drawing style -->
<g stroke-opacity=".6" stroke-width="3.6">
<path d="m485.92-215.74-305.66 32.127"/>
</g>
<!-- drawing style -->
<g stroke-opacity=".60784" stroke-width="3.636">
<path d="m126.01-113.27 19.432-44.796"/>
</g>
<!-- drawing style -->
<g stroke-opacity=".6" stroke-width="3.6">
<path d="m419 164.53-89.033-418.87"/>
</g>
<!-- drawing style -->
<g stroke-opacity=".6" stroke-width="3.608">
<path d="m235.52 143.41 84.075-397.74"/>
</g>
<!-- drawing style -->
<g stroke-opacity=".60392" stroke-width="3.616">
<path d="m487-226.08-138.46-44.987"/>
</g>
<!-- drawing style -->
<g stroke-opacity=".6" stroke-width="3.608">
<path d="m254.81-256.23 46.162-14.884"/>
</g>
<!-- drawing style -->
<g stroke-opacity=".60392" stroke-width="3.616">
<path d="m500.61 116.16-165.67-372.11"/>
</g>
<!-- drawing style -->
<g stroke-opacity=".54118" stroke-width="3.252">
<path d="m349.63-276.18 49.702 5.2239"/>
</g>
<!-- drawing style -->
<g stroke-opacity=".6" stroke-width="3.6">
<path d="m554.85 37.889-215.39-296.45"/>
</g>
<!-- drawing style -->
<g stroke-opacity=".60392" stroke-width="3.628">
<path d="m134.61-107.09 171.6-154.95"/>
</g>
<!-- drawing style -->
<g stroke-opacity=".60784" stroke-width="3.644">
<path d="m346.42-266.29 201.47 116.32"/>
</g>
<!-- drawing style -->
<g stroke-opacity=".6" stroke-width="3.6">
<path d="m130.72-10.61 179.4-247.93"/>
</g>
<!-- drawing style -->
<g stroke-opacity=".60392" stroke-width="3.628">
<path d="m343.35-262.06 228.4 205.66"/>
</g>
<!-- drawing style -->
<g stroke-opacity=".6" stroke-width="3.6">
<path d="m166.21 78.13 148.41-334.07"/>
</g>
<!-- drawing style -->
<g stroke-opacity=".60784" stroke-width="3.636">
<path d="m325.4 174.43-0.59717-428.22"/>
</g>
<!-- drawing style -->
<g stroke-opacity=".66274" stroke-width="3.984">
<path d="m489.13-230.85-43.28-24.988"/>
</g>
<!-- drawing style -->
<g stroke-opacity=".59608" stroke-width="3.572">
<path d="m137.71-102.84 264.84-153"/>
</g>
<!-- drawing style -->
<g stroke-opacity=".6" stroke-width="3.6">
<path d="m574.74-113.01 10.391 48.884"/>
</g>
<!-- drawing style -->
<g stroke-opacity=".60392" stroke-width="3.612">
<path d="m140.93-92.917 403.75-41.967"/>
</g>
<!-- drawing style -->
<g stroke-opacity=".6" stroke-width="3.6">
<path d="m177.71 88.488 370.17-213.47"/>
</g>
<!-- drawing style -->
<g stroke-opacity=".63922" stroke-width="3.828">
<path d="m340.1 179.19 214.77-296.41"/>
</g>
<g stroke-opacity=".6">
<!-- drawing style -->
<g stroke-width="3.6">
<path d="m248.93 151.15 302.03-271.89"/>
<!-- drawing style -->
<path d="m515.98 114.54 48.369-227.56"/>
<!-- drawing style -->
<path d="m254.77-240.77 291.02 95.503"/>
<!-- drawing style -->
<path d="m434.37 166.15 125.01-280.78"/>
<!-- drawing style -->
<path d="m569.54 33.114v-145.58"/>
<!-- drawing style -->
<path d="m525.47-198.13 29.375 40.431"/>
</g>
<!-- drawing style -->
<g stroke-width="3.608">
<path d="m139.84 1.9298 405.92-131.68"/>
</g>
<!-- drawing style -->
<g stroke-width="3.6">
<path d="m574.74 33.661 10.391-48.884"/>
<!-- drawing style -->
<path d="m520.95-195.51 59.214 133"/>
</g>
<!-- drawing style -->
<g stroke-width="3.608">
<path d="m140.92-87.677 424.55 45.345"/>
</g>
<!-- drawing style -->
<g stroke-width="3.6">
<path d="m520.95 116.16 59.214-133"/>
<!-- drawing style -->
<path d="m179.84 93.274 386.71-125.25"/>
<!-- drawing style -->
<path d="m438.89 168.76 136.74-188.21"/>
</g>
<!-- drawing style -->
</g>
<g stroke-opacity=".60392" stroke-width="3.62">
<path d="m252.01 155.39 316.66-182.58"/>
</g>
<!-- drawing style -->
<g stroke-opacity=".6" stroke-width="3.6">
<path d="m252.63-236 316.08 183.75"/>
</g>
<!-- drawing style -->
<g stroke-opacity=".60392" stroke-width="3.628">
<path d="m140.93 7.0582 424.54-44.149"/>
</g>
<!-- drawing style -->
<g stroke-opacity=".60392" stroke-width="3.612">
<path d="m343.99 182.68 227.78-205.61"/>
</g>
<!-- drawing style -->
<g stroke-opacity=".65882" stroke-width="3.948">
<path d="m544.68 60.692-363.75 37.707"/>
</g>
<!-- drawing style -->
<g stroke-opacity=".6" stroke-width="3.6">
<path d="m174.64 84.25 317.56-285.87"/>
<!-- drawing style -->
<path d="m121.18-65.861 29.765 142.37"/>
</g>
<!-- drawing style -->
<g stroke-opacity=".65098" stroke-width="3.9">
<path d="m161.3 76.533 64.479-300.65"/>
</g>
<!-- drawing style -->
<g stroke-opacity=".6" stroke-width="3.6">
<path d="m126.09 32.544 19.94 45.532"/>
<!-- drawing style -->
<path d="m485.92 136.33-305.01-32.691"/>
<!-- drawing style -->
<path d="m211.77 151.15-37.139-33.44"/>
<!-- drawing style -->
<path d="m303.82 186.87-126.15-73.331"/>
<!-- drawing style -->
<path d="m400.44 181.19-220.63-72.415"/>
</g>
<!-- drawing style -->
<g stroke-opacity=".6" stroke-width="3.608">
<path d="m230.39 142.87 0.5868-366.44"/>
</g>
<!-- drawing style -->
<g stroke-opacity=".60392" stroke-width="3.616">
<path d="m126.18-67.471 94.055 212.48"/>
</g>
<g stroke-opacity=".6">
<!-- drawing style -->
<g stroke-width="3.6">
<path d="m245.04 147.64 251.05-345.76"/>
<!-- drawing style -->
<path d="m485.91 141.56-230.69 23.755"/>
<!-- drawing style -->
<path d="m301.71 191.56-47.629-15.81"/>
<!-- drawing style -->
<path d="m255.21 170.58 144.14 15.698"/>
</g>
<!-- drawing style -->
<g stroke-width="3.604">
<path d="m130.7 29.91 85.016 117.7"/>
</g>
<!-- drawing style -->
<g stroke-width="3.6">
<path d="m254.14 160.18 291.62-94.366"/>
<!-- drawing style -->
<path d="m137.67 22.22 264.92 154.19"/>
<!-- drawing style -->
<path d="m134.58-73.542 271.09 245.74"/>
<!-- drawing style -->
<path d="m414.1 166.11-172.98-391.81"/>
</g>
<!-- drawing style -->
<g stroke-width="3.608">
<path d="m350.3 196.8 49.039-5.189"/>
<!-- drawing style -->
<path d="m429.4 164.53 76.186-358.43"/>
</g>
<!-- drawing style -->
<g stroke-width="3.6">
<path d="m489.13 151.5-43.28 24.988"/>
<!-- drawing style -->
<path d="m442.78 172.26 108.19-97.414"/>
</g>
<!-- drawing style -->
</g>
<g stroke-opacity=".60392" stroke-width="3.628">
<path d="m306.91 182.64-172.33-156.21"/>
</g>
<!-- drawing style -->
<g stroke-opacity=".6" stroke-width="3.6">
<path d="m320.28 174.97-84.105-399.07"/>
<!-- drawing style -->
<path d="m335.57 176.58 165.07-372.08"/>
<!-- drawing style -->
<path d="m347.07 186.91 200.84-116.27"/>
</g>
<!-- drawing style -->
<g stroke-opacity=".60392" stroke-width="3.62">
<path d="m349.2 191.68 137.81-44.937"/>
</g>
<g stroke-opacity=".6">
<!-- drawing style -->
<g stroke-width="3.604">
<path d="m310.79 179.17-180.09-249.24"/>
</g>
<!-- drawing style -->
<g stroke-width="3.608">
<path d="m485.92-221.03-230.05-24.843"/>
<!-- drawing style -->
<path d="m496.15 118.73-250.49-347.02"/>
</g>
<!-- drawing style -->
<g stroke-width="3.6">
<path d="m126.23-13.194 94.624-212.53"/>
<!-- drawing style -->
<path d="m130.75-110.56 85.571-117.78"/>
</g>
<!-- drawing style -->
</g>
<g stroke-opacity=".64706" stroke-width="3.888">
<path d="m551.02 41.33-301.47-273.11"/>
</g>
<!-- drawing style -->
<g stroke-opacity=".60392" stroke-width="3.612">
<path d="m139.84-98.045 347.16-112.59"/>
</g>
<g stroke-opacity=".6">
<!-- drawing style -->
<g stroke-width="3.608">
<path d="m510.78 114v-307.35"/>
</g>
<!-- drawing style -->
<g stroke-width="3.6">
<path d="m564.35 33.661-48.369-227.56"/>
<!-- drawing style -->
<path d="m137.71-2.8601 351.42-202.99"/>
<!-- drawing style -->
<path d="m525.47 118.77 29.375-40.431"/>
<!-- drawing style -->
<path d="m487.02 131.21-347.21-113.78"/>
</g>
<!-- drawing style -->
<g stroke-width="3.604">
<path d="m137.68-77.773 351.49 204.21"/>
</g>
<!-- drawing style -->
<g stroke-width="3.6">
<path d="m139.82-82.554 405.97 132.89"/>
</g>
<!-- drawing style -->
</g>
<g stroke-opacity=".60392" stroke-width="3.612">
<path d="m140.92 12.301 403.77 43.156"/>
</g>
<!-- drawing style -->
<g stroke-opacity=".6" stroke-width="3.6">
<path d="m116.06-65.332v49.976"/>
</g>
<!-- drawing style -->
</g>
<g fill="#f66">
<path d="m180.39-181c0 13.807-11.193 25-25 25s-25-11.193-25-25c0-13.807 11.193-25 25-25s25 11.193 25 25z"/>
</g>
<!-- drawing style -->
</g>
<g transform="matrix(.16458 0 0 .16458 207.68 128.97)">
<g fill="none" stroke="#000" stroke-width=".1">
<path d="m7.7254-23.776c10.301 3.3469 17.275 12.946 17.275 23.776h10c0-15.163-9.7636-28.601-24.184-33.287z"/>
</g>
<!-- drawing style -->
<g fill="#666">
<path d="m7.7254-23.776c10.301 3.3469 17.275 12.946 17.275 23.776h10c0-15.163-9.7636-28.601-24.184-33.287z"/>
</g>
<!-- drawing style -->
<g fill="none" stroke="#000" stroke-width=".1">
<path d="m-20.225-14.695c6.3661-8.7622 17.65-12.429 27.951-9.0818l3.0902-9.5106c-14.421-4.6856-30.219 0.44744-39.131 12.714z"/>
</g>
<!-- drawing style -->
<g fill="#b0b4c1">
<path d="m-20.225-14.695c6.3661-8.7622 17.65-12.429 27.951-9.0818l3.0902-9.5106c-14.421-4.6856-30.219 0.44744-39.131 12.714z"/>
</g>
<!-- drawing style -->
<g fill="none" stroke="#000" stroke-width=".1">
<path d="m-20.225 14.695c-6.3661-8.7622-6.3661-20.627 0-29.389l-8.0902-5.8779c-8.9125 12.267-8.9125 28.878 0 41.145z"/>
</g>
<!-- drawing style -->
<g fill="#7fc97f">
<path d="m-20.225 14.695c-6.3661-8.7622-6.3661-20.627 0-29.389l-8.0902-5.8779c-8.9125 12.267-8.9125 28.878 0 41.145z"/>
</g>
<!-- drawing style -->
<g fill="none" stroke="#000" stroke-width=".1">
<path d="m7.7254 23.776c-10.301 3.3469-21.585-0.3196-27.951-9.0818l-8.0902 5.8779c8.9125 12.267 24.71 17.4 39.131 12.714z"/>
</g>
<!-- drawing style -->
<g fill="#e1b8a9">
<path d="m7.7254 23.776c-10.301 3.3469-21.585-0.3196-27.951-9.0818l-8.0902 5.8779c8.9125 12.267 24.71 17.4 39.131 12.714z"/>
</g>
<!-- drawing style -->
<g fill="none" stroke="#000" stroke-width=".1">
<path d="m25 0c0 10.831-6.974 20.43-17.275 23.776l3.0902 9.5106c14.421-4.6856 24.184-18.124 24.184-33.287z"/>
</g>
<!-- drawing style -->
<g fill="#ab5d29">
<path d="m25 0c0 10.831-6.974 20.43-17.275 23.776l3.0902 9.5106c14.421-4.6856 24.184-18.124 24.184-33.287z"/>
</g>
<!-- drawing style -->
</g>
<g transform="matrix(.16458 0 0 .16458 205.65 129.61)">
<text fill="#000000" font-family="Helvetica" font-size="12px">TNC</text>
</g>
<g transform="matrix(.16458 0 0 .16458 182.1 158.76)">
<g fill="#f66">
<path d="m349.77-278.79c0 13.807-11.193 25-25 25s-25-11.193-25-25c0-13.807 11.193-25 25-25s25 11.193 25 25z"/>
</g>
<!-- drawing style -->
</g>
<g transform="matrix(.16458 0 0 .16458 235.56 112.88)">
<g fill="none" stroke="#000" stroke-width=".1">
<path d="m7.7254-23.776c10.301 3.3469 17.275 12.946 17.275 23.776h10c0-15.163-9.7636-28.601-24.184-33.287z"/>
</g>
<!-- drawing style -->
<g fill="#666">
<path d="m7.7254-23.776c10.301 3.3469 17.275 12.946 17.275 23.776h10c0-15.163-9.7636-28.601-24.184-33.287z"/>
</g>
<!-- drawing style -->
<g fill="none" stroke="#000" stroke-width=".1">
<path d="m-20.225-14.695c6.3661-8.7622 17.65-12.429 27.951-9.0818l3.0902-9.5106c-14.421-4.6856-30.219 0.44744-39.131 12.714z"/>
</g>
<!-- drawing style -->
<g fill="#b0b4c1">
<path d="m-20.225-14.695c6.3661-8.7622 17.65-12.429 27.951-9.0818l3.0902-9.5106c-14.421-4.6856-30.219 0.44744-39.131 12.714z"/>
</g>
<!-- drawing style -->
<g fill="none" stroke="#000" stroke-width=".1">
<path d="m-20.225 14.695c-6.3661-8.7622-6.3661-20.627 0-29.389l-8.0902-5.8779c-8.9125 12.267-8.9125 28.878 0 41.145z"/>
</g>
<!-- drawing style -->
<g fill="#7fc97f">
<path d="m-20.225 14.695c-6.3661-8.7622-6.3661-20.627 0-29.389l-8.0902-5.8779c-8.9125 12.267-8.9125 28.878 0 41.145z"/>
</g>
<!-- drawing style -->
<g fill="none" stroke="#000" stroke-width=".1">
<path d="m7.7254 23.776c-10.301 3.3469-21.585-0.3196-27.951-9.0818l-8.0902 5.8779c8.9125 12.267 24.71 17.4 39.131 12.714z"/>
</g>
<!-- drawing style -->
<g fill="#e1b8a9">
<path d="m7.7254 23.776c-10.301 3.3469-21.585-0.3196-27.951-9.0818l-8.0902 5.8779c8.9125 12.267 24.71 17.4 39.131 12.714z"/>
</g>
<!-- drawing style -->
<g fill="none" stroke="#000" stroke-width=".1">
<path d="m25 0c0 10.831-6.974 20.43-17.275 23.776l3.0902 9.5106c14.421-4.6856 24.184-18.124 24.184-33.287z"/>
</g>
<!-- drawing style -->
<g fill="#ab5d29">
<path d="m25 0c0 10.831-6.974 20.43-17.275 23.776l3.0902 9.5106c14.421-4.6856 24.184-18.124 24.184-33.287z"/>
</g>
<!-- drawing style -->
</g>
<g transform="matrix(.16458 0 0 .16458 233.58 113.52)">
<text fill="#000000" font-family="Helvetica" font-size="12px">APP</text>
</g>
<g transform="matrix(.16458 0 0 .16458 182.1 158.76)">
<g fill="#f66">
<path d="m449.2-268.34c0 13.807-11.193 25-25 25s-25-11.193-25-25 11.193-25 25-25 25 11.193 25 25z"/>
</g>
<!-- drawing style -->
</g>
<g transform="matrix(.16458 0 0 .16458 251.92 114.6)">
<g fill="none" stroke="#000" stroke-width=".1">
<path d="m-25 0c0-13.807 11.193-25 25-25s25 11.193 25 25h10c0-19.33-15.67-35-35-35s-35 15.67-35 35z"/>
</g>
<!-- drawing style -->
<g fill="#7fc97f">
<path d="m-25 0c0-13.807 11.193-25 25-25s25 11.193 25 25h10c0-19.33-15.67-35-35-35s-35 15.67-35 35z"/>
</g>
<!-- drawing style -->
<g fill="none" stroke="#000" stroke-width=".1">
<path d="m25 0c0 13.807-11.193 25-25 25s-25-11.193-25-25h-10c0 19.33 15.67 35 35 35s35-15.67 35-35z"/>
</g>
<!-- drawing style -->
<g fill="#e1b8a9">
<path d="m25 0c0 13.807-11.193 25-25 25s-25-11.193-25-25h-10c0 19.33 15.67 35 35 35s35-15.67 35-35z"/>
</g>
<!-- drawing style -->
</g>
<g transform="matrix(.16458 0 0 .16458 249.29 115.24)">
<text fill="#000000" font-family="Helvetica" font-size="12px">CALR</text>
</g>
<g transform="matrix(.16458 0 0 .16458 182.1 158.76)">
<g fill="#f66">
<path d="m594.54-137.47c0 13.807-11.193 25-25 25-13.807 0-25-11.193-25-25s11.193-25 25-25c13.807 0 25 11.193 25 25z"/>
</g>
<!-- drawing style -->
</g>
<g transform="matrix(.16458 0 0 .16458 275.84 136.14)">
<g fill="none" stroke="#000" stroke-width=".1">
<path d="m0-25c13.807 0 25 11.193 25 25h10c0-19.33-15.67-35-35-35z"/>
</g>
<!-- drawing style -->
<g fill="#666">
<path d="m0-25c13.807 0 25 11.193 25 25h10c0-19.33-15.67-35-35-35z"/>
</g>
<!-- drawing style -->
<g fill="none" stroke="#000" stroke-width=".1">
<path d="m-25 0c0-13.807 11.193-25 25-25v-10c-19.33 0-35 15.67-35 35z"/>
</g>
<!-- drawing style -->
<g fill="#b0b4c1">
<path d="m-25 0c0-13.807 11.193-25 25-25v-10c-19.33 0-35 15.67-35 35z"/>
</g>
<!-- drawing style -->
<g fill="none" stroke="#000" stroke-width=".1">
<path d="m0 25c-13.807 0-25-11.193-25-25h-10c0 19.33 15.67 35 35 35z"/>
</g>
<!-- drawing style -->
<g fill="#7fc97f">
<path d="m0 25c-13.807 0-25-11.193-25-25h-10c0 19.33 15.67 35 35 35z"/>
</g>
<!-- drawing style -->
<g fill="none" stroke="#000" stroke-width=".1">
<path d="m25 0c0 13.807-11.193 25-25 25v10c19.33 0 35-15.67 35-35z"/>
</g>
<!-- drawing style -->
<g fill="#e1b8a9">
<path d="m25 0c0 13.807-11.193 25-25 25v10c19.33 0 35-15.67 35-35z"/>
</g>
<!-- drawing style -->
</g>
<g transform="matrix(.16458 0 0 .16458 272.39 136.78)">
<text fill="#000000" font-family="Helvetica" font-size="12px">GOLM1</text>
</g>
<g transform="matrix(.16458 0 0 .16458 182.1 158.76)">
<g fill="#f66">
<path d="m615.33-39.677c0 13.807-11.193 25-25 25s-25-11.193-25-25c0-13.807 11.193-25 25-25s25 11.193 25 25z"/>
</g>
<!-- drawing style -->
</g>
<g transform="matrix(.16458 0 0 .16458 279.26 152.23)">
<g fill="none" stroke="#000" stroke-width=".1">
<path d="m7.7254-23.776c10.301 3.3469 17.275 12.946 17.275 23.776h10c0-15.163-9.7636-28.601-24.184-33.287z"/>
</g>
<!-- drawing style -->
<g fill="#666">
<path d="m7.7254-23.776c10.301 3.3469 17.275 12.946 17.275 23.776h10c0-15.163-9.7636-28.601-24.184-33.287z"/>
</g>
<!-- drawing style -->
<g fill="none" stroke="#000" stroke-width=".1">
<path d="m-20.225-14.695c6.3661-8.7622 17.65-12.429 27.951-9.0818l3.0902-9.5106c-14.421-4.6856-30.219 0.44744-39.131 12.714z"/>
</g>
<!-- drawing style -->
<g fill="#b0b4c1">
<path d="m-20.225-14.695c6.3661-8.7622 17.65-12.429 27.951-9.0818l3.0902-9.5106c-14.421-4.6856-30.219 0.44744-39.131 12.714z"/>
</g>
<!-- drawing style -->
<g fill="none" stroke="#000" stroke-width=".1">
<path d="m-20.225 14.695c-6.3661-8.7622-6.3661-20.627 0-29.389l-8.0902-5.8779c-8.9125 12.267-8.9125 28.878 0 41.145z"/>
</g>
<!-- drawing style -->
<g fill="#7fc97f">
<path d="m-20.225 14.695c-6.3661-8.7622-6.3661-20.627 0-29.389l-8.0902-5.8779c-8.9125 12.267-8.9125 28.878 0 41.145z"/>
</g>
<!-- drawing style -->
<g fill="none" stroke="#000" stroke-width=".1">
<path d="m7.7254 23.776c-10.301 3.3469-21.585-0.3196-27.951-9.0818l-8.0902 5.8779c8.9125 12.267 24.71 17.4 39.131 12.714z"/>
</g>
<!-- drawing style -->
<g fill="#e1b8a9">
<path d="m7.7254 23.776c-10.301 3.3469-21.585-0.3196-27.951-9.0818l-8.0902 5.8779c8.9125 12.267 24.71 17.4 39.131 12.714z"/>
</g>
<!-- drawing style -->
<g fill="none" stroke="#000" stroke-width=".1">
<path d="m25 0c0 10.831-6.974 20.43-17.275 23.776l3.0902 9.5106c14.421-4.6856 24.184-18.124 24.184-33.287z"/>
</g>
<!-- drawing style -->
<g fill="#ab5d29">
<path d="m25 0c0 10.831-6.974 20.43-17.275 23.776l3.0902 9.5106c14.421-4.6856 24.184-18.124 24.184-33.287z"/>
</g>
<!-- drawing style -->
</g>
<g transform="matrix(.16458 0 0 .16458 275.92 152.87)">
<text fill="#000000" font-family="Helvetica" font-size="12px">MATN3</text>
</g>
<g transform="matrix(.16458 0 0 .16458 182.1 158.76)">
<g fill="#fff">
<path d="m181.06 100.98c0 13.807-11.193 25-25 25s-25-11.193-25-25c0-13.807 11.193-25 25-25s25 11.193 25 25z"/>
</g>
<!-- drawing style -->
</g>
<g transform="matrix(.16458 0 0 .16458 207.79 175.38)">
<g fill="none" stroke="#000" stroke-width=".1">
<path d="m0-25c13.807 0 25 11.193 25 25h10c0-19.33-15.67-35-35-35z"/>
</g>
<!-- drawing style -->
<g fill="#666">
<path d="m0-25c13.807 0 25 11.193 25 25h10c0-19.33-15.67-35-35-35z"/>
</g>
<!-- drawing style -->
<g fill="none" stroke="#000" stroke-width=".1">
<path d="m-25 0c0-13.807 11.193-25 25-25v-10c-19.33 0-35 15.67-35 35z"/>
</g>
<!-- drawing style -->
<g fill="#b0b4c1">
<path d="m-25 0c0-13.807 11.193-25 25-25v-10c-19.33 0-35 15.67-35 35z"/>
</g>
<!-- drawing style -->
<g fill="none" stroke="#000" stroke-width=".1">
<path d="m0 25c-13.807 0-25-11.193-25-25h-10c0 19.33 15.67 35 35 35z"/>
</g>
<!-- drawing style -->
<g fill="#7fc97f">
<path d="m0 25c-13.807 0-25-11.193-25-25h-10c0 19.33 15.67 35 35 35z"/>
</g>
<!-- drawing style -->
<g fill="none" stroke="#000" stroke-width=".1">
<path d="m25 0c0 13.807-11.193 25-25 25v10c19.33 0 35-15.67 35-35z"/>
</g>
<!-- drawing style -->
<g fill="#e1b8a9">
<path d="m25 0c0 13.807-11.193 25-25 25v10c19.33 0 35-15.67 35-35z"/>
</g>
<!-- drawing style -->
</g>
<g transform="matrix(.16458 0 0 .16458 204.99 176.02)">
<text fill="#000000" font-family="Helvetica" font-size="12px">AMTN</text>
</g>
<g transform="matrix(.16458 0 0 .16458 182.1 158.76)">
<g fill="#fff">
<path d="m255.35 167.87c0 13.807-11.193 25-25 25s-25-11.193-25-25c0-13.807 11.193-25 25-25s25 11.193 25 25z"/>
</g>
<!-- drawing style -->
</g>
<g transform="matrix(.16458 0 0 .16458 220.02 186.39)">
<g fill="none" stroke="#000" stroke-width=".1">
<path d="m0-25c13.807 0 25 11.193 25 25h10c0-19.33-15.67-35-35-35z"/>
</g>
<!-- drawing style -->
<g fill="#666">
<path d="m0-25c13.807 0 25 11.193 25 25h10c0-19.33-15.67-35-35-35z"/>
</g>
<!-- drawing style -->
<g fill="none" stroke="#000" stroke-width=".1">
<path d="m-25 0c0-13.807 11.193-25 25-25v-10c-19.33 0-35 15.67-35 35z"/>
</g>
<!-- drawing style -->
<g fill="#b0b4c1">
<path d="m-25 0c0-13.807 11.193-25 25-25v-10c-19.33 0-35 15.67-35 35z"/>
</g>
<!-- drawing style -->
<g fill="none" stroke="#000" stroke-width=".1">
<path d="m0 25c-13.807 0-25-11.193-25-25h-10c0 19.33 15.67 35 35 35z"/>
</g>
<!-- drawing style -->
<g fill="#7fc97f">
<path d="m0 25c-13.807 0-25-11.193-25-25h-10c0 19.33 15.67 35 35 35z"/>
</g>
<!-- drawing style -->
<g fill="none" stroke="#000" stroke-width=".1">
<path d="m25 0c0 13.807-11.193 25-25 25v10c19.33 0 35-15.67 35-35z"/>
</g>
<!-- drawing style -->
<g fill="#e1b8a9">
<path d="m25 0c0 13.807-11.193 25-25 25v10c19.33 0 35-15.67 35-35z"/>
</g>
<!-- drawing style -->
</g>
<g transform="matrix(.16458 0 0 .16458 216.83 187.03)">
<text fill="#000000" font-family="Helvetica" font-size="12px">EVA1A</text>
</g>
<g transform="matrix(.16458 0 0 .16458 182.1 158.76)">
<g fill="#fff">
<path d="m449.2 188.98c0 13.807-11.193 25-25 25s-25-11.193-25-25c0-13.807 11.193-25 25-25s25 11.193 25 25z"/>
</g>
<!-- drawing style -->
</g>
<g transform="matrix(.16458 0 0 .16458 251.92 189.87)">
<g fill="none" stroke="#000" stroke-width=".1">
<path d="m0-25c13.807 0 25 11.193 25 25h10c0-19.33-15.67-35-35-35z"/>
</g>
<!-- drawing style -->
<g fill="#666">
<path d="m0-25c13.807 0 25 11.193 25 25h10c0-19.33-15.67-35-35-35z"/>
</g>
<!-- drawing style -->
<g fill="none" stroke="#000" stroke-width=".1">
<path d="m-25 0c0-13.807 11.193-25 25-25v-10c-19.33 0-35 15.67-35 35z"/>
</g>
<!-- drawing style -->
<g fill="#b0b4c1">
<path d="m-25 0c0-13.807 11.193-25 25-25v-10c-19.33 0-35 15.67-35 35z"/>
</g>
<!-- drawing style -->
<g fill="none" stroke="#000" stroke-width=".1">
<path d="m0 25c-13.807 0-25-11.193-25-25h-10c0 19.33 15.67 35 35 35z"/>
</g>
<!-- drawing style -->
<g fill="#7fc97f">
<path d="m0 25c-13.807 0-25-11.193-25-25h-10c0 19.33 15.67 35 35 35z"/>
</g>
<!-- drawing style -->
<g fill="none" stroke="#000" stroke-width=".1">
<path d="m25 0c0 13.807-11.193 25-25 25v10c19.33 0 35-15.67 35-35z"/>
</g>
<!-- drawing style -->
<g fill="#e1b8a9">
<path d="m25 0c0 13.807-11.193 25-25 25v10c19.33 0 35-15.67 35-35z"/>
</g>
<!-- drawing style -->
</g>
<g transform="matrix(.16458 0 0 .16458 248.41 190.51)">
<text fill="#000000" font-family="Helvetica" font-size="12px">SHISA5</text>
</g>
<g transform="matrix(.16458 0 0 .16458 182.1 158.76)">
<g fill="#fff">
<path d="m350.44 199.43c0 13.807-11.193 25-25 25s-25-11.193-25-25 11.193-25 25-25 25 11.193 25 25z"/>
</g>
<!-- drawing style -->
</g>
<g transform="matrix(.16458 0 0 .16458 235.67 191.59)">
<g fill="none" stroke="#000" stroke-width=".1">
<path d="m0-25c13.807 0 25 11.193 25 25h10c0-19.33-15.67-35-35-35z"/>
</g>
<!-- drawing style -->
<g fill="#666">
<path d="m0-25c13.807 0 25 11.193 25 25h10c0-19.33-15.67-35-35-35z"/>
</g>
<!-- drawing style -->
<g fill="none" stroke="#000" stroke-width=".1">
<path d="m-25 0c0-13.807 11.193-25 25-25v-10c-19.33 0-35 15.67-35 35z"/>
</g>
<!-- drawing style -->
<g fill="#b0b4c1">
<path d="m-25 0c0-13.807 11.193-25 25-25v-10c-19.33 0-35 15.67-35 35z"/>
</g>
<!-- drawing style -->
<g fill="none" stroke="#000" stroke-width=".1">
<path d="m0 25c-13.807 0-25-11.193-25-25h-10c0 19.33 15.67 35 35 35z"/>
</g>
<!-- drawing style -->
<g fill="#7fc97f">
<path d="m0 25c-13.807 0-25-11.193-25-25h-10c0 19.33 15.67 35 35 35z"/>
</g>
<!-- drawing style -->
<g fill="none" stroke="#000" stroke-width=".1">
<path d="m25 0c0 13.807-11.193 25-25 25v10c19.33 0 35-15.67 35-35z"/>
</g>
<!-- drawing style -->
<g fill="#e1b8a9">
<path d="m25 0c0 13.807-11.193 25-25 25v10c19.33 0 35-15.67 35-35z"/>
</g>
<!-- drawing style -->
</g>
<g transform="matrix(.16458 0 0 .16458 230.45 192.23)">
<text fill="#000000" font-family="Helvetica" font-size="12px">TMEM132A</text>
</g>
<g transform="matrix(.16458 0 0 .16458 182.1 158.76)">
<g fill="#fff">
<path d="m256.02-248.56c0 13.807-11.193 25-25 25-13.807 0-25-11.193-25-25 0-13.807 11.193-25 25-25 13.807 0 25 11.193 25 25z"/>
</g>
<!-- drawing style -->
</g>
<g transform="matrix(.16458 0 0 .16458 220.13 117.85)">
<g fill="none" stroke="#000" stroke-width=".1">
<path d="m-12.5-21.651c7.735-4.4658 17.265-4.4658 25 0 7.735 4.4658 12.5 12.719 12.5 21.651h10c0-12.504-6.671-24.059-17.5-30.311-10.829-6.2521-24.171-6.2521-35 0z"/>
</g>
<!-- drawing style -->
<g fill="#666">
<path d="m-12.5-21.651c7.735-4.4658 17.265-4.4658 25 0 7.735 4.4658 12.5 12.719 12.5 21.651h10c0-12.504-6.671-24.059-17.5-30.311-10.829-6.2521-24.171-6.2521-35 0z"/>
</g>
<!-- drawing style -->
<g fill="none" stroke="#000" stroke-width=".1">
<path d="m-12.5 21.651c-7.735-4.4658-12.5-12.719-12.5-21.651s4.765-17.185 12.5-21.651l-5-8.6603c-10.829 6.2521-17.5 17.807-17.5 30.311s6.671 24.059 17.5 30.311z"/>
</g>
<!-- drawing style -->
<g fill="#b0b4c1">
<path d="m-12.5 21.651c-7.735-4.4658-12.5-12.719-12.5-21.651s4.765-17.185 12.5-21.651l-5-8.6603c-10.829 6.2521-17.5 17.807-17.5 30.311s6.671 24.059 17.5 30.311z"/>
</g>
<!-- drawing style -->
<g fill="none" stroke="#000" stroke-width=".1">
<path d="m25 0c0 8.9316-4.765 17.185-12.5 21.651-7.735 4.4658-17.265 4.4658-25 0l-5 8.6603c10.829 6.2521 24.171 6.2521 35 0 10.829-6.2521 17.5-17.807 17.5-30.311z"/>
</g>
<!-- drawing style -->
<g fill="#e1b8a9">
<path d="m25 0c0 8.9316-4.765 17.185-12.5 21.651-7.735 4.4658-17.265 4.4658-25 0l-5 8.6603c10.829 6.2521 24.171 6.2521 35 0 10.829-6.2521 17.5-17.807 17.5-30.311z"/>
</g>
<!-- drawing style -->
</g>
<g transform="matrix(.16458 0 0 .16458 216.29 118.49)">
<text fill="#000000" font-family="Helvetica" font-size="12px">FAM20A</text>
</g>
<g transform="matrix(.16458 0 0 .16458 182.1 158.76)">
<g fill="#fff">
<path d="m535.78-218.35c0 13.807-11.193 25-25 25-13.807 0-25-11.193-25-25 0-13.807 11.193-25 25-25 13.807 0 25 11.193 25 25z"/>
</g>
<!-- drawing style -->
</g>
<g transform="matrix(.16458 0 0 .16458 266.17 122.83)">
<g fill="none" stroke="#000" stroke-width=".1">
<path d="m0-25c13.807 0 25 11.193 25 25h10c0-19.33-15.67-35-35-35z"/>
</g>
<!-- drawing style -->
<g fill="#666">
<path d="m0-25c13.807 0 25 11.193 25 25h10c0-19.33-15.67-35-35-35z"/>
</g>
<!-- drawing style -->
<g fill="none" stroke="#000" stroke-width=".1">
<path d="m-25 0c0-13.807 11.193-25 25-25v-10c-19.33 0-35 15.67-35 35z"/>
</g>
<!-- drawing style -->
<g fill="#b0b4c1">
<path d="m-25 0c0-13.807 11.193-25 25-25v-10c-19.33 0-35 15.67-35 35z"/>
</g>
<!-- drawing style -->
<g fill="none" stroke="#000" stroke-width=".1">
<path d="m0 25c-13.807 0-25-11.193-25-25h-10c0 19.33 15.67 35 35 35z"/>
</g>
<!-- drawing style -->
<g fill="#7fc97f">
<path d="m0 25c-13.807 0-25-11.193-25-25h-10c0 19.33 15.67 35 35 35z"/>
</g>
<!-- drawing style -->
<g fill="none" stroke="#000" stroke-width=".1">
<path d="m25 0c0 13.807-11.193 25-25 25v10c19.33 0 35-15.67 35-35z"/>
</g>
<!-- drawing style -->
<g fill="#e1b8a9">
<path d="m25 0c0 13.807-11.193 25-25 25v10c19.33 0 35-15.67 35-35z"/>
</g>
<!-- drawing style -->
</g>
<g transform="matrix(.16458 0 0 .16458 262.06 123.46)">
<text fill="#000000" font-family="Helvetica" font-size="12px">PRKCSH</text>
</g>
<g transform="matrix(.16458 0 0 .16458 182.1 158.76)">
<g fill="#fff">
<path d="m535.78 139c0 13.807-11.193 25-25 25-13.807 0-25-11.193-25-25s11.193-25 25-25c13.807 0 25 11.193 25 25z"/>
</g>
<!-- drawing style -->
</g>
<g transform="matrix(.16458 0 0 .16458 266.17 181.64)">
<g fill="none" stroke="#000" stroke-width=".1">
<path d="m0-25c13.807 0 25 11.193 25 25h10c0-19.33-15.67-35-35-35z"/>
</g>
<!-- drawing style -->
<g fill="#666">
<path d="m0-25c13.807 0 25 11.193 25 25h10c0-19.33-15.67-35-35-35z"/>
</g>
<!-- drawing style -->
<g fill="none" stroke="#000" stroke-width=".1">
<path d="m-25 0c0-13.807 11.193-25 25-25v-10c-19.33 0-35 15.67-35 35z"/>
</g>
<!-- drawing style -->
<g fill="#b0b4c1">
<path d="m-25 0c0-13.807 11.193-25 25-25v-10c-19.33 0-35 15.67-35 35z"/>
</g>
<!-- drawing style -->
<g fill="none" stroke="#000" stroke-width=".1">
<path d="m0 25c-13.807 0-25-11.193-25-25h-10c0 19.33 15.67 35 35 35z"/>
</g>
<!-- drawing style -->
<g fill="#7fc97f">
<path d="m0 25c-13.807 0-25-11.193-25-25h-10c0 19.33 15.67 35 35 35z"/>
</g>
<!-- drawing style -->
<g fill="none" stroke="#000" stroke-width=".1">
<path d="m25 0c0 13.807-11.193 25-25 25v10c19.33 0 35-15.67 35-35z"/>
</g>
<!-- drawing style -->
<g fill="#e1b8a9">
<path d="m25 0c0 13.807-11.193 25-25 25v10c19.33 0 35-15.67 35-35z"/>
</g>
<!-- drawing style -->
</g>
<g transform="matrix(.16458 0 0 .16458 263.48 182.28)">
<text fill="#000000" font-family="Helvetica" font-size="12px">ANO8</text>
</g>
<g transform="matrix(.16458 0 0 .16458 182.1 158.76)">
<g fill="#fff">
<path d="m594.54 58.114c0 13.807-11.193 25-25 25-13.807 0-25-11.193-25-25 0-13.807 11.193-25 25-25 13.807 0 25 11.193 25 25z"/>
</g>
<!-- drawing style -->
</g>
<g transform="matrix(.16458 0 0 .16458 275.84 168.33)">
<g fill="none" stroke="#000" stroke-width=".1">
<path d="m0-25c13.807 0 25 11.193 25 25h10c0-19.33-15.67-35-35-35z"/>
</g>
<!-- drawing style -->
<g fill="#666">
<path d="m0-25c13.807 0 25 11.193 25 25h10c0-19.33-15.67-35-35-35z"/>
</g>
<!-- drawing style -->
<g fill="none" stroke="#000" stroke-width=".1">
<path d="m-25 0c0-13.807 11.193-25 25-25v-10c-19.33 0-35 15.67-35 35z"/>
</g>
<!-- drawing style -->
<g fill="#b0b4c1">
<path d="m-25 0c0-13.807 11.193-25 25-25v-10c-19.33 0-35 15.67-35 35z"/>
</g>
<!-- drawing style -->
<g fill="none" stroke="#000" stroke-width=".1">
<path d="m0 25c-13.807 0-25-11.193-25-25h-10c0 19.33 15.67 35 35 35z"/>
</g>
<!-- drawing style -->
<g fill="#7fc97f">
<path d="m0 25c-13.807 0-25-11.193-25-25h-10c0 19.33 15.67 35 35 35z"/>
</g>
<!-- drawing style -->
<g fill="none" stroke="#000" stroke-width=".1">
<path d="m25 0c0 13.807-11.193 25-25 25v10c19.33 0 35-15.67 35-35z"/>
</g>
<!-- drawing style -->
<g fill="#e1b8a9">
<path d="m25 0c0 13.807-11.193 25-25 25v10c19.33 0 35-15.67 35-35z"/>
</g>
<!-- drawing style -->
</g>
<g transform="matrix(.16458 0 0 .16458 272.99 168.97)">
<text fill="#000000" font-family="Helvetica" font-size="12px">AMBN</text>
</g>
<g transform="matrix(.16458 0 0 .16458 182.1 158.76)">
<g fill="#fff">
<path d="m141.06-90.332c0 13.807-11.193 25-25 25s-25-11.193-25-25 11.193-25 25-25 25 11.193 25 25z"/>
</g>
<!-- drawing style -->
</g>
<g transform="matrix(.16458 0 0 .16458 201.21 143.9)">
<g fill="none" stroke="#000" stroke-width=".1">
<path d="m0-25c13.807 0 25 11.193 25 25h10c0-19.33-15.67-35-35-35z"/>
</g>
<!-- drawing style -->
<g fill="#666">
<path d="m0-25c13.807 0 25 11.193 25 25h10c0-19.33-15.67-35-35-35z"/>
</g>
<!-- drawing style -->
<g fill="none" stroke="#000" stroke-width=".1">
<path d="m-25 0c0-13.807 11.193-25 25-25v-10c-19.33 0-35 15.67-35 35z"/>
</g>
<!-- drawing style -->
<g fill="#b0b4c1">
<path d="m-25 0c0-13.807 11.193-25 25-25v-10c-19.33 0-35 15.67-35 35z"/>
</g>
<!-- drawing style -->
<g fill="none" stroke="#000" stroke-width=".1">
<path d="m0 25c-13.807 0-25-11.193-25-25h-10c0 19.33 15.67 35 35 35z"/>
</g>
<!-- drawing style -->
<g fill="#7fc97f">
<path d="m0 25c-13.807 0-25-11.193-25-25h-10c0 19.33 15.67 35 35 35z"/>
</g>
<!-- drawing style -->
<g fill="none" stroke="#000" stroke-width=".1">
<path d="m25 0c0 13.807-11.193 25-25 25v10c19.33 0 35-15.67 35-35z"/>
</g>
<!-- drawing style -->
<g fill="#e1b8a9">
<path d="m25 0c0 13.807-11.193 25-25 25v10c19.33 0 35-15.67 35-35z"/>
</g>
<!-- drawing style -->
</g>
<g transform="matrix(.16458 0 0 .16458 198.52 144.53)">
<text fill="#000000" font-family="Helvetica" font-size="12px">RCN1</text>
</g>
<g transform="matrix(.16458 0 0 .16458 182.1 158.76)">
<g fill="#fff">
<path d="m141.06 9.6441c0 13.807-11.193 25-25 25s-25-11.193-25-25c0-13.807 11.193-25 25-25s25 11.193 25 25z"/>
</g>
<!-- drawing style -->
</g>
<g transform="matrix(.16458 0 0 .16458 201.21 160.35)">
<g fill="none" stroke="#000" stroke-width=".1">
<path d="m0-25c13.807 0 25 11.193 25 25h10c0-19.33-15.67-35-35-35z"/>
</g>
<!-- drawing style -->
<g fill="#666">
<path d="m0-25c13.807 0 25 11.193 25 25h10c0-19.33-15.67-35-35-35z"/>
</g>
<!-- drawing style -->
<g fill="none" stroke="#000" stroke-width=".1">
<path d="m-25 0c0-13.807 11.193-25 25-25v-10c-19.33 0-35 15.67-35 35z"/>
</g>
<!-- drawing style -->
<g fill="#b0b4c1">
<path d="m-25 0c0-13.807 11.193-25 25-25v-10c-19.33 0-35 15.67-35 35z"/>
</g>
<!-- drawing style -->
<g fill="none" stroke="#000" stroke-width=".1">
<path d="m0 25c-13.807 0-25-11.193-25-25h-10c0 19.33 15.67 35 35 35z"/>
</g>
<!-- drawing style -->
<g fill="#7fc97f">
<path d="m0 25c-13.807 0-25-11.193-25-25h-10c0 19.33 15.67 35 35 35z"/>
</g>
<!-- drawing style -->
<g fill="none" stroke="#000" stroke-width=".1">
<path d="m25 0c0 13.807-11.193 25-25 25v10c19.33 0 35-15.67 35-35z"/>
</g>
<!-- drawing style -->
<g fill="#e1b8a9">
<path d="m25 0c0 13.807-11.193 25-25 25v10c19.33 0 35-15.67 35-35z"/>
</g>
<!-- drawing style -->
</g>
<g transform="matrix(.16458 0 0 .16458 197.8 160.99)">
<text fill="#000000" font-family="Helvetica" font-size="12px">BPIFB2</text>
</g>
<text x="130.80032" y="201.02504" fill="#000000" font-family="'Times New Roman'" font-size="10.583px" stroke-width=".26458" style="font-variant-caps:normal;font-variant-east-asian:normal;font-variant-ligatures:normal;font-variant-numeric:normal;line-height:1.25" xml:space="preserve"><tspan x="130.80032" y="201.02504" font-family="'Times New Roman'" font-size="10.583px" stroke-width=".26458" style="font-variant-caps:normal;font-variant-east-asian:normal;font-variant-ligatures:normal;font-variant-numeric:normal">B</tspan></text>
<text x="156.78185" y="13.45058" fill="#000000" font-family="'Times New Roman'" font-size="10.583px" stroke-width=".26458" style="font-variant-caps:normal;font-variant-east-asian:normal;font-variant-ligatures:normal;font-variant-numeric:normal;line-height:1.25" xml:space="preserve"><tspan x="156.78185" y="13.45058" font-family="'Times New Roman'" font-size="10.583px" stroke-width=".26458" style="font-variant-caps:normal;font-variant-east-asian:normal;font-variant-ligatures:normal;font-variant-numeric:normal">C</tspan></text>
<g fill="none" stroke-miterlimit="10">
<circle cx="78.572" cy="119.75" r="2.62" stroke="#be989c" stroke-width=".99024"/>
<g stroke-width=".99024">
<circle cx="78.551" cy="126.43" r="2.62" stroke="#66c2a5"/>
<circle cx="78.572" cy="132.98" r="2.62" stroke="#db9971"/>
<circle cx="78.531" cy="139.67" r="2.62" stroke="#f3d05c"/>
<circle cx="78.574" cy="146.24" r="2.62" stroke="#adcf60"/>
</g>
</g>
<g fill="#000000" font-family="Arial" font-size="3.5278px" stroke-width=".26458">
<text x="95.213638" y="66.206512" style="line-height:1.25" xml:space="preserve"><tspan x="95.213638" y="66.206512" font-family="'Times New Roman'" font-size="2.8222px" stroke-width=".26458" style="font-variant-caps:normal;font-variant-east-asian:normal;font-variant-ligatures:normal;font-variant-numeric:normal">up-regulated protein from T1 to T3</tspan></text>
<text x="82.540726" y="127.38452" style="line-height:1.25" xml:space="preserve"><tspan x="82.540726" y="127.38452" font-family="'Times New Roman'" font-size="2.8222px" stroke-width=".26458" style="font-variant-caps:normal;font-variant-east-asian:normal;font-variant-ligatures:normal;font-variant-numeric:normal">GO Process: neutrophil degranulation</tspan></text>
<text x="82.446228" y="133.99911" style="line-height:1.25" xml:space="preserve"><tspan x="82.446228" y="133.99911" font-family="'Times New Roman'" font-size="2.8222px" stroke-width=".26458" style="font-variant-caps:normal;font-variant-east-asian:normal;font-variant-ligatures:normal;font-variant-numeric:normal">GO Process: exocytosis</tspan></text>
<text x="82.440765" y="140.62057" style="line-height:1.25" xml:space="preserve"><tspan x="82.440765" y="140.62057" font-family="'Times New Roman'" font-size="2.8222px" stroke-width=".26458" style="font-variant-caps:normal;font-variant-east-asian:normal;font-variant-ligatures:normal;font-variant-numeric:normal">GO Component: endomembrane system</tspan></text>
<text x="82.414917" y="147.22173" style="line-height:1.25" xml:space="preserve"><tspan x="82.414917" y="147.22173" font-family="'Times New Roman'" font-size="2.8222px" stroke-width=".26458" style="font-variant-caps:normal;font-variant-east-asian:normal;font-variant-ligatures:normal;font-variant-numeric:normal">GO Component: intracellular organelle</tspan></text>
</g>
<g fill="none" stroke-miterlimit="10" stroke-width=".99024">
<circle cx="160.9" cy="67.658" r="2.62" stroke="#666"/>
<circle cx="160.94" cy="75.034" r="2.62" stroke="#b0b4c1"/>
<circle cx="160.88" cy="82.624" r="2.62" stroke="#ab5d29"/>
<circle cx="160.94" cy="90.215" r="2.62" stroke="#e1b8a9"/>
<circle cx="160.98" cy="97.872" r="2.62" stroke="#7fc97f"/>
</g>
<g fill="#000000" font-family="Arial" font-size="3.5278px" stroke-width=".26458">
<text x="165.27025" y="68.183998" style="line-height:1.25" xml:space="preserve"><tspan x="165.27025" y="68.183998" font-family="'Times New Roman'" font-size="2.8222px" stroke-width=".26458" style="font-variant-caps:normal;font-variant-east-asian:normal;font-variant-ligatures:normal;font-variant-numeric:normal">Reactome Pathways: Post-translational protein phosphorylation</tspan></text>
<text x="165.27025" y="75.790764" style="line-height:1.25" xml:space="preserve"><tspan x="165.27025" y="75.790764" font-family="'Times New Roman'" font-size="2.8222px" stroke-width=".26458" style="font-variant-caps:normal;font-variant-east-asian:normal;font-variant-ligatures:normal;font-variant-numeric:normal">Reactome Pathways: Regulation of IGF transport and uptake by IGFBPs</tspan></text>
<text x="165.32811" y="98.627045" style="line-height:1.25" xml:space="preserve"><tspan x="165.32811" y="98.627045" font-family="'Times New Roman'" font-size="2.8222px" stroke-width=".26458" style="font-variant-caps:normal;font-variant-east-asian:normal;font-variant-ligatures:normal;font-variant-numeric:normal">GO Component: endoplasmic reticulum lumen</tspan></text>
<text x="165.27025" y="83.539276" style="line-height:1.25" xml:space="preserve"><tspan x="165.27025" y="83.539276" font-family="'Times New Roman'" font-size="2.8222px" stroke-width=".26458" style="font-variant-caps:normal;font-variant-east-asian:normal;font-variant-ligatures:normal;font-variant-numeric:normal">Reactome Pathways: ECM proteoglycans</tspan></text>
<text x="165.27025" y="90.957062" style="line-height:1.25" xml:space="preserve"><tspan x="165.27025" y="90.957062" font-family="'Times New Roman'" font-size="2.8222px" stroke-width=".26458" style="font-variant-caps:normal;font-variant-east-asian:normal;font-variant-ligatures:normal;font-variant-numeric:normal">Reactome Pathways: Post-translational protein modification</tspan></text>
</g>
</svg>
